999
dxfrw 0.5.11
0
SECTION
2
HEADER
9
$ACADVER
1
AC1021
9
$HANDSEED
5
20000
9
$DWGCODEPAGE
3
ANSI_1252
9
$INSBASE
10
0
20
0
30
0
9
$EXTMIN
10
7
20
0
30
0
9
$EXTMAX
10
193
20
210
30
0
9
$LIMMIN
10
0
20
0
9
$LIMMAX
10
420
20
297
9
$ORTHOMODE
70
0
9
$LTSCALE
40
1
9
$TEXTSTYLE
7
STANDARD
9
$CLAYER
8
Engraving
9
$DIMASZ
40
2.5
9
$DIMLFAC
40
1
9
$DIMSCALE
40
1
9
$DIMEXO
40
0.625
9
$DIMEXE
40
1.25
9
$DIMTXT
40
2.5
9
$DIMTSZ
40
0
9
$DIMAUNIT
70
0
9
$DIMADEC
70
2
9
$DIMLUNIT
70
2
9
$DIMSTYLE
2
STANDARD
9
$DIMGAP
40
0.625
9
$DIMTIH
70
0
9
$LUNITS
70
2
9
$LUPREC
70
4
9
$AUNITS
70
0
9
$AUPREC
70
2
9
$SPLINESEGS
70
8
9
$GRIDMODE
70
1
9
$SNAPSTYLE
70
0
9
$GRIDUNIT
10
0
20
0
9
$PINSBASE
10
0
20
0
30
0
9
$PLIMMIN
10
0
20
0
9
$PLIMMAX
10
200
20
220
9
$INSUNITS
70
4
9
$PSVPSCALE
40
1
0
ENDSEC
0
SECTION
2
CLASSES
0
ENDSEC
0
SECTION
2
TABLES
0
TABLE
2
VPORT
5
8
330
0
100
AcDbSymbolTable
70
1
0
VPORT
5
31
330
2
100
AcDbSymbolTableRecord
100
AcDbViewportTableRecord
2
*ACTIVE
70
0
10
0
20
0
11
1
21
1
12
201.016827693
22
119.172606037
13
0
23
0
14
10
24
10
15
10
25
10
16
0
26
0
36
1
17
0
27
0
37
0
40
337.114726027
41
1.78129298487
42
50
43
0
44
0
50
0
51
0
71
0
72
100
73
1
74
3
75
0
76
1
77
0
78
0
281
0
65
1
110
0
120
0
130
0
111
1
121
0
131
0
112
0
122
1
132
0
79
0
146
0
348
10020
60
7
61
5
292
1
282
1
141
0
142
0
63
250
421
3358443
0
ENDTAB
0
TABLE
2
LTYPE
5
5
330
0
100
AcDbSymbolTable
70
4
0
LTYPE
5
14
330
5
100
AcDbSymbolTableRecord
100
AcDbLinetypeTableRecord
2
ByBlock
70
0
3

72
65
73
0
40
0
0
LTYPE
5
15
330
5
100
AcDbSymbolTableRecord
100
AcDbLinetypeTableRecord
2
ByLayer
70
0
3

72
65
73
0
40
0
0
LTYPE
5
16
330
5
100
AcDbSymbolTableRecord
100
AcDbLinetypeTableRecord
2
Continuous
70
0
3
Solid line
72
65
73
0
40
0
0
LTYPE
5
32
330
5
100
AcDbSymbolTableRecord
100
AcDbLinetypeTableRecord
2
DOT
70
0
3
Dot . . . . . . . . . . . . . . . . . . . . . .
72
65
73
2
40
6.35
49
0
74
0
49
-6.35
74
0
0
LTYPE
5
33
330
5
100
AcDbSymbolTableRecord
100
AcDbLinetypeTableRecord
2
DOT2
70
0
3
Dot (.5x) .....................................
72
65
73
2
40
3.175
49
0
74
0
49
-3.175
74
0
0
LTYPE
5
34
330
5
100
AcDbSymbolTableRecord
100
AcDbLinetypeTableRecord
2
DOTX2
70
0
3
Dot (2x) .  .  .  .  .  .  .  .  .  .  .  .  .
72
65
73
2
40
12.7
49
0
74
0
49
-12.7
74
0
0
LTYPE
5
35
330
5
100
AcDbSymbolTableRecord
100
AcDbLinetypeTableRecord
2
DASHED
70
0
3
Dot . . . . . . . . . . . . . . . . . . . . . .
72
65
73
2
40
19.05
49
12.7
74
0
49
-6.35
74
0
0
LTYPE
5
36
330
5
100
AcDbSymbolTableRecord
100
AcDbLinetypeTableRecord
2
DASHED2
70
0
3
Dashed (.5x) _ _ _ _ _ _ _ _ _ _ _ _ _ _ _ _ _
72
65
73
2
40
9.525
49
6.35
74
0
49
-3.175
74
0
0
LTYPE
5
37
330
5
100
AcDbSymbolTableRecord
100
AcDbLinetypeTableRecord
2
DASHEDX2
70
0
3
Dashed (2x) ____  ____  ____  ____  ____  ___
72
65
73
2
40
38.1
49
25.4
74
0
49
-12.7
74
0
0
LTYPE
5
38
330
5
100
AcDbSymbolTableRecord
100
AcDbLinetypeTableRecord
2
DASHDOT
70
0
3
Dash dot __ . __ . __ . __ . __ . __ . __ . __
72
65
73
4
40
25.4
49
12.7
74
0
49
-6.35
74
0
49
0
74
0
49
-6.35
74
0
0
LTYPE
5
39
330
5
100
AcDbSymbolTableRecord
100
AcDbLinetypeTableRecord
2
DASHDOT2
70
0
3
Dash dot (.5x) _._._._._._._._._._._._._._._.
72
65
73
4
40
12.7
49
6.35
74
0
49
-3.175
74
0
49
0
74
0
49
-3.175
74
0
0
LTYPE
5
3A
330
5
100
AcDbSymbolTableRecord
100
AcDbLinetypeTableRecord
2
DASHDOTX2
70
0
3
Dash dot (2x) ____  .  ____  .  ____  .  ___
72
65
73
4
40
50.8
49
25.4
74
0
49
-12.7
74
0
49
0
74
0
49
-12.7
74
0
0
LTYPE
5
3B
330
5
100
AcDbSymbolTableRecord
100
AcDbLinetypeTableRecord
2
DIVIDE
70
0
3
Divide ____ . . ____ . . ____ . . ____ . . ____
72
65
73
6
40
31.75
49
12.7
74
0
49
-6.35
74
0
49
0
74
0
49
-6.35
74
0
49
0
74
0
49
-6.35
74
0
0
LTYPE
5
3C
330
5
100
AcDbSymbolTableRecord
100
AcDbLinetypeTableRecord
2
DIVIDE2
70
0
3
Divide (.5x) __..__..__..__..__..__..__..__.._
72
65
73
6
40
15.875
49
6.35
74
0
49
-3.175
74
0
49
0
74
0
49
-3.175
74
0
49
0
74
0
49
-3.175
74
0
0
LTYPE
5
3D
330
5
100
AcDbSymbolTableRecord
100
AcDbLinetypeTableRecord
2
DIVIDEX2
70
0
3
Divide (2x) ________  .  .  ________  .  .  _
72
65
73
6
40
63.5
49
25.4
74
0
49
-12.7
74
0
49
0
74
0
49
-12.7
74
0
49
0
74
0
49
-12.7
74
0
0
LTYPE
5
3E
330
5
100
AcDbSymbolTableRecord
100
AcDbLinetypeTableRecord
2
BORDER
70
0
3
Border __ __ . __ __ . __ __ . __ __ . __ __ .
72
65
73
6
40
44.45
49
12.7
74
0
49
-6.35
74
0
49
12.7
74
0
49
-6.35
74
0
49
0
74
0
49
-6.35
74
0
0
LTYPE
5
3F
330
5
100
AcDbSymbolTableRecord
100
AcDbLinetypeTableRecord
2
BORDER2
70
0
3
Border (.5x) __.__.__.__.__.__.__.__.__.__.__.
72
65
73
6
40
22.225
49
6.35
74
0
49
-3.175
74
0
49
6.35
74
0
49
-3.175
74
0
49
0
74
0
49
-3.175
74
0
0
LTYPE
5
40
330
5
100
AcDbSymbolTableRecord
100
AcDbLinetypeTableRecord
2
BORDERX2
70
0
3
Border (2x) ____  ____  .  ____  ____  .  ___
72
65
73
6
40
88.9
49
25.4
74
0
49
-12.7
74
0
49
25.4
74
0
49
-12.7
74
0
49
0
74
0
49
-12.7
74
0
0
LTYPE
5
41
330
5
100
AcDbSymbolTableRecord
100
AcDbLinetypeTableRecord
2
CENTER
70
0
3
Center ____ _ ____ _ ____ _ ____ _ ____ _ ____
72
65
73
4
40
50.8
49
31.75
74
0
49
-6.35
74
0
49
6.35
74
0
49
-6.35
74
0
0
LTYPE
5
42
330
5
100
AcDbSymbolTableRecord
100
AcDbLinetypeTableRecord
2
CENTER2
70
0
3
Center (.5x) ___ _ ___ _ ___ _ ___ _ ___ _ ___
72
65
73
4
40
28.575
49
19.05
74
0
49
-3.175
74
0
49
3.175
74
0
49
-3.175
74
0
0
LTYPE
5
43
330
5
100
AcDbSymbolTableRecord
100
AcDbLinetypeTableRecord
2
CENTERX2
70
0
3
Center (2x) ________  __  ________  __  _____
72
65
73
4
40
101.6
49
63.5
74
0
49
-12.7
74
0
49
12.7
74
0
49
-12.7
74
0
0
ENDTAB
0
TABLE
2
LAYER
5
2
330
0
100
AcDbSymbolTable
70
1
0
LAYER
5
10
330
2
100
AcDbSymbolTableRecord
100
AcDbLayerTableRecord
2
0
70
0
62
7
6
CONTINUOUS
370
0
390
F
0
LAYER
5
44
330
2
100
AcDbSymbolTableRecord
100
AcDbLayerTableRecord
2
2xPowerConn_MountingHoles
70
0
62
1
6
CONTINUOUS
370
0
390
F
0
LAYER
5
45
330
2
100
AcDbSymbolTableRecord
100
AcDbLayerTableRecord
2
2xPowerConn_Outer
70
0
62
2
6
CONTINUOUS
370
0
390
F
0
LAYER
5
46
330
2
100
AcDbSymbolTableRecord
100
AcDbLayerTableRecord
2
Engraving
70
0
62
7
6
CONTINUOUS
370
0
390
F
0
LAYER
5
47
330
2
100
AcDbSymbolTableRecord
100
AcDbLayerTableRecord
2
M3_ScrewJoint
70
0
62
1
6
CONTINUOUS
370
0
390
F
0
LAYER
5
48
330
2
100
AcDbSymbolTableRecord
100
AcDbLayerTableRecord
2
MiscPanel_Cutouts
70
0
62
1
6
CONTINUOUS
370
0
390
F
0
LAYER
5
49
330
2
100
AcDbSymbolTableRecord
100
AcDbLayerTableRecord
2
NKK-CW-SW_Cutout
70
0
62
1
6
CONTINUOUS
370
0
390
F
0
LAYER
5
4A
330
2
100
AcDbSymbolTableRecord
100
AcDbLayerTableRecord
2
NKK-M-SW_Cutout
70
0
62
1
6
CONTINUOUS
370
0
390
F
0
LAYER
5
4B
330
2
100
AcDbSymbolTableRecord
100
AcDbLayerTableRecord
2
NKK-M-SW_MountingHoles
70
0
62
1
6
CONTINUOUS
370
0
390
F
0
LAYER
5
4C
330
2
100
AcDbSymbolTableRecord
100
AcDbLayerTableRecord
2
PanelOuter
70
0
62
1
6
CONTINUOUS
370
0
390
F
0
LAYER
5
4D
330
2
100
AcDbSymbolTableRecord
100
AcDbLayerTableRecord
2
SwitchOption_Cutouts
70
0
62
1
6
CONTINUOUS
370
0
390
F
0
LAYER
5
4E
330
2
100
AcDbSymbolTableRecord
100
AcDbLayerTableRecord
2
SwitchOption_Engraving
70
0
62
7
6
CONTINUOUS
370
0
390
F
0
ENDTAB
0
TABLE
2
STYLE
5
3
330
0
100
AcDbSymbolTable
70
3
0
STYLE
5
4F
330
2
100
AcDbSymbolTableRecord
100
AcDbTextStyleTableRecord
2
Standard
70
0
40
0
41
1
50
0
71
0
42
1
3
txt
4

0
ENDTAB
0
TABLE
2
VIEW
5
6
330
0
100
AcDbSymbolTable
70
0
0
ENDTAB
0
TABLE
2
UCS
5
7
330
0
100
AcDbSymbolTable
70
0
0
ENDTAB
0
TABLE
2
APPID
5
9
330
0
100
AcDbSymbolTable
70
1
0
APPID
5
12
330
9
100
AcDbSymbolTableRecord
100
AcDbRegAppTableRecord
2
ACAD
70
0
0
ENDTAB
0
TABLE
2
DIMSTYLE
5
A
330
0
100
AcDbSymbolTable
70
1
100
AcDbDimStyleTable
71
1
0
DIMSTYLE
105
50
330
A
100
AcDbSymbolTableRecord
100
AcDbDimStyleTableRecord
2
Standard
70
0
40
1
41
2.5
42
0.625
43
0.38
44
1.25
45
0
46
0
47
0
48
0
140
2.5
141
0.09
142
0
143
25.4
144
1
145
0
146
1
147
0.625
148
0
71
0
72
0
73
0
74
1
75
0
76
0
77
0
78
0
79
0
170
0
171
2
172
0
173
0
174
0
175
0
176
0
177
0
178
0
179
0
271
4
272
4
273
2
274
2
275
0
276
0
277
2
278
46
279
0
280
0
281
0
282
0
283
1
284
0
285
0
286
0
288
0
289
3
340
Standard
341

371
-2
372
-2
0
ENDTAB
0
TABLE
2
BLOCK_RECORD
5
1
330
0
100
AcDbSymbolTable
70
2
0
BLOCK_RECORD
5
1F
330
1
100
AcDbSymbolTableRecord
100
AcDbBlockTableRecord
2
*Model_Space
70
0
280
1
281
0
0
BLOCK_RECORD
5
1E
330
1
100
AcDbSymbolTableRecord
100
AcDbBlockTableRecord
2
*Paper_Space
70
0
280
1
281
0
0
BLOCK_RECORD
5
51
330
1
100
AcDbSymbolTableRecord
100
AcDbBlockTableRecord
2
M3_ScrewJoint-0
70
0
280
1
281
0
0
BLOCK_RECORD
5
54
330
1
100
AcDbSymbolTableRecord
100
AcDbBlockTableRecord
2
M3_ScrewJoint-1
70
0
280
1
281
0
0
BLOCK_RECORD
5
57
330
1
100
AcDbSymbolTableRecord
100
AcDbBlockTableRecord
2
M3_ScrewJoint-2
70
0
280
1
281
0
0
BLOCK_RECORD
5
5A
330
1
100
AcDbSymbolTableRecord
100
AcDbBlockTableRecord
2
2Pole_PowerConnector-0
70
0
280
1
281
0
0
BLOCK_RECORD
5
5D
330
1
100
AcDbSymbolTableRecord
100
AcDbBlockTableRecord
2
2Pole_PowerConnector-1
70
0
280
1
281
0
0
BLOCK_RECORD
5
60
330
1
100
AcDbSymbolTableRecord
100
AcDbBlockTableRecord
2
2Pole_PowerConnector-2
70
0
280
1
281
0
0
BLOCK_RECORD
5
63
330
1
100
AcDbSymbolTableRecord
100
AcDbBlockTableRecord
2
2Pole_PowerConnector-3
70
0
280
1
281
0
0
BLOCK_RECORD
5
66
330
1
100
AcDbSymbolTableRecord
100
AcDbBlockTableRecord
2
2Pole_PowerConnector-4
70
0
280
1
281
0
0
BLOCK_RECORD
5
69
330
1
100
AcDbSymbolTableRecord
100
AcDbBlockTableRecord
2
2Pole_PowerConnector-5
70
0
280
1
281
0
0
BLOCK_RECORD
5
6C
330
1
100
AcDbSymbolTableRecord
100
AcDbBlockTableRecord
2
2Pole_PowerConnector-6
70
0
280
1
281
0
0
BLOCK_RECORD
5
6F
330
1
100
AcDbSymbolTableRecord
100
AcDbBlockTableRecord
2
2Pole_PowerConnector-7
70
0
280
1
281
0
0
BLOCK_RECORD
5
72
330
1
100
AcDbSymbolTableRecord
100
AcDbBlockTableRecord
2
2Pole_PowerConnector-8
70
0
280
1
281
0
0
BLOCK_RECORD
5
75
330
1
100
AcDbSymbolTableRecord
100
AcDbBlockTableRecord
2
NKK_CW-Series_Switch_Cutout-0
70
0
280
1
281
0
0
BLOCK_RECORD
5
78
330
1
100
AcDbSymbolTableRecord
100
AcDbBlockTableRecord
2
NKK_CW-Series_Switch_Cutout-1
70
0
280
1
281
0
0
BLOCK_RECORD
5
7B
330
1
100
AcDbSymbolTableRecord
100
AcDbBlockTableRecord
2
NKK_CW-Series_Switch_Cutout-2
70
0
280
1
281
0
0
BLOCK_RECORD
5
7E
330
1
100
AcDbSymbolTableRecord
100
AcDbBlockTableRecord
2
NKK_CW-Series_Switch_Cutout-3
70
0
280
1
281
0
0
BLOCK_RECORD
5
81
330
1
100
AcDbSymbolTableRecord
100
AcDbBlockTableRecord
2
NKK_CW-Series_Switch_Cutout-4
70
0
280
1
281
0
0
BLOCK_RECORD
5
84
330
1
100
AcDbSymbolTableRecord
100
AcDbBlockTableRecord
2
NKK_CW-Series_Switch_Cutout-5
70
0
280
1
281
0
0
BLOCK_RECORD
5
87
330
1
100
AcDbSymbolTableRecord
100
AcDbBlockTableRecord
2
NKK_CW-Series_Switch_Cutout-6
70
0
280
1
281
0
0
BLOCK_RECORD
5
8A
330
1
100
AcDbSymbolTableRecord
100
AcDbBlockTableRecord
2
NKK_M-Series_TN-Type-0
70
0
280
1
281
0
0
BLOCK_RECORD
5
8D
330
1
100
AcDbSymbolTableRecord
100
AcDbBlockTableRecord
2
2Pole_PowerConnector-9
70
0
280
1
281
0
0
BLOCK_RECORD
5
90
330
1
100
AcDbSymbolTableRecord
100
AcDbBlockTableRecord
2
Ground-0
70
0
280
1
281
0
0
BLOCK_RECORD
5
93
330
1
100
AcDbSymbolTableRecord
100
AcDbBlockTableRecord
2
Ground-1
70
0
280
1
281
0
0
BLOCK_RECORD
5
96
330
1
100
AcDbSymbolTableRecord
100
AcDbBlockTableRecord
2
Ground-2
70
0
280
1
281
0
0
BLOCK_RECORD
5
99
330
1
100
AcDbSymbolTableRecord
100
AcDbBlockTableRecord
2
Ground-3
70
0
280
1
281
0
0
BLOCK_RECORD
5
9C
330
1
100
AcDbSymbolTableRecord
100
AcDbBlockTableRecord
2
Ground-4
70
0
280
1
281
0
0
BLOCK_RECORD
5
9F
330
1
100
AcDbSymbolTableRecord
100
AcDbBlockTableRecord
2
Ground-5
70
0
280
1
281
0
0
BLOCK_RECORD
5
A2
330
1
100
AcDbSymbolTableRecord
100
AcDbBlockTableRecord
2
Ground-6
70
0
280
1
281
0
0
BLOCK_RECORD
5
A5
330
1
100
AcDbSymbolTableRecord
100
AcDbBlockTableRecord
2
Ground-7
70
0
280
1
281
0
0
BLOCK_RECORD
5
A8
330
1
100
AcDbSymbolTableRecord
100
AcDbBlockTableRecord
2
Ground-8
70
0
280
1
281
0
0
ENDTAB
0
ENDSEC
0
SECTION
2
BLOCKS
0
BLOCK
5
20
330
1F
100
AcDbEntity
8
0
100
AcDbBlockBegin
2
*Model_Space
70
0
10
0
20
0
30
0
3
*Model_Space
1

0
ENDBLK
5
21
330
1F
100
AcDbEntity
8
0
100
AcDbBlockEnd
0
BLOCK
5
1C
330
1B
100
AcDbEntity
8
0
100
AcDbBlockBegin
2
*Paper_Space
70
0
10
0
20
0
30
0
3
*Paper_Space
1

0
ENDBLK
5
1D
330
1F
100
AcDbEntity
8
0
100
AcDbBlockEnd
0
BLOCK
5
52
330
51
100
AcDbEntity
8
0
100
AcDbBlockBegin
2
M3_ScrewJoint-0
70
0
10
0
20
0
3
M3_ScrewJoint-0
1

0
LINE
5
AB
100
AcDbEntity
8
M3_ScrewJoint
6
ByLayer
62
256
370
-1
100
AcDbLine
10
1.75
20
10
11
-1.75
21
10
0
LINE
5
AC
100
AcDbEntity
8
M3_ScrewJoint
6
ByLayer
62
256
370
-1
100
AcDbLine
10
-3
20
8
11
-3
21
5.5
0
LINE
5
AD
100
AcDbEntity
8
M3_ScrewJoint
6
ByLayer
62
256
370
-1
100
AcDbLine
10
3
20
8
11
3
21
5.5
0
LINE
5
AE
100
AcDbEntity
8
M3_ScrewJoint
6
ByLayer
62
256
370
-1
100
AcDbLine
10
-1.75
20
5.5
11
-1.75
21
0
0
LINE
5
AF
100
AcDbEntity
8
M3_ScrewJoint
6
ByLayer
62
256
370
-1
100
AcDbLine
10
-1.75
20
10
11
-1.75
21
8
0
LINE
5
B0
100
AcDbEntity
8
M3_ScrewJoint
6
ByLayer
62
256
370
-1
100
AcDbLine
10
1.75
20
8
11
1.75
21
10
0
LINE
5
B1
100
AcDbEntity
8
M3_ScrewJoint
6
ByLayer
62
256
370
-1
100
AcDbLine
10
1.75
20
0
11
1.75
21
5.5
0
LINE
5
B2
100
AcDbEntity
8
M3_ScrewJoint
6
ByLayer
62
256
370
-1
100
AcDbLine
10
-3
20
5.5
11
-1.75
21
5.5
0
LINE
5
B3
100
AcDbEntity
8
M3_ScrewJoint
6
ByLayer
62
256
370
-1
100
AcDbLine
10
1.75
20
5.5
11
3
21
5.5
0
LINE
5
B4
100
AcDbEntity
8
M3_ScrewJoint
6
ByLayer
62
256
370
-1
100
AcDbLine
10
3
20
8
11
1.75
21
8
0
LINE
5
B5
100
AcDbEntity
8
M3_ScrewJoint
6
ByLayer
62
256
370
-1
100
AcDbLine
10
-1.75
20
8
11
-3
21
8
0
ENDBLK
5
53
330
51
100
AcDbEntity
8
0
100
AcDbBlockEnd
0
BLOCK
5
55
330
54
100
AcDbEntity
8
0
100
AcDbBlockBegin
2
M3_ScrewJoint-1
70
0
10
0
20
0
3
M3_ScrewJoint-1
1

0
LINE
5
B6
100
AcDbEntity
8
M3_ScrewJoint
6
ByLayer
62
256
370
-1
100
AcDbLine
10
1.75
20
10
11
-1.75
21
10
0
LINE
5
B7
100
AcDbEntity
8
M3_ScrewJoint
6
ByLayer
62
256
370
-1
100
AcDbLine
10
-3
20
8
11
-3
21
5.5
0
LINE
5
B8
100
AcDbEntity
8
M3_ScrewJoint
6
ByLayer
62
256
370
-1
100
AcDbLine
10
3
20
8
11
3
21
5.5
0
LINE
5
B9
100
AcDbEntity
8
M3_ScrewJoint
6
ByLayer
62
256
370
-1
100
AcDbLine
10
-1.75
20
5.5
11
-1.75
21
0
0
LINE
5
BA
100
AcDbEntity
8
M3_ScrewJoint
6
ByLayer
62
256
370
-1
100
AcDbLine
10
-1.75
20
10
11
-1.75
21
8
0
LINE
5
BB
100
AcDbEntity
8
M3_ScrewJoint
6
ByLayer
62
256
370
-1
100
AcDbLine
10
1.75
20
8
11
1.75
21
10
0
LINE
5
BC
100
AcDbEntity
8
M3_ScrewJoint
6
ByLayer
62
256
370
-1
100
AcDbLine
10
1.75
20
0
11
1.75
21
5.5
0
LINE
5
BD
100
AcDbEntity
8
M3_ScrewJoint
6
ByLayer
62
256
370
-1
100
AcDbLine
10
-3
20
5.5
11
-1.75
21
5.5
0
LINE
5
BE
100
AcDbEntity
8
M3_ScrewJoint
6
ByLayer
62
256
370
-1
100
AcDbLine
10
1.75
20
5.5
11
3
21
5.5
0
LINE
5
BF
100
AcDbEntity
8
M3_ScrewJoint
6
ByLayer
62
256
370
-1
100
AcDbLine
10
3
20
8
11
1.75
21
8
0
LINE
5
C0
100
AcDbEntity
8
M3_ScrewJoint
6
ByLayer
62
256
370
-1
100
AcDbLine
10
-1.75
20
8
11
-3
21
8
0
ENDBLK
5
56
330
54
100
AcDbEntity
8
0
100
AcDbBlockEnd
0
BLOCK
5
58
330
57
100
AcDbEntity
8
0
100
AcDbBlockBegin
2
M3_ScrewJoint-2
70
0
10
0
20
0
3
M3_ScrewJoint-2
1

0
LINE
5
C1
100
AcDbEntity
8
M3_ScrewJoint
6
ByLayer
62
256
370
-1
100
AcDbLine
10
1.75
20
10
11
-1.75
21
10
0
LINE
5
C2
100
AcDbEntity
8
M3_ScrewJoint
6
ByLayer
62
256
370
-1
100
AcDbLine
10
-3
20
8
11
-3
21
5.5
0
LINE
5
C3
100
AcDbEntity
8
M3_ScrewJoint
6
ByLayer
62
256
370
-1
100
AcDbLine
10
3
20
8
11
3
21
5.5
0
LINE
5
C4
100
AcDbEntity
8
M3_ScrewJoint
6
ByLayer
62
256
370
-1
100
AcDbLine
10
-1.75
20
5.5
11
-1.75
21
0
0
LINE
5
C5
100
AcDbEntity
8
M3_ScrewJoint
6
ByLayer
62
256
370
-1
100
AcDbLine
10
-1.75
20
10
11
-1.75
21
8
0
LINE
5
C6
100
AcDbEntity
8
M3_ScrewJoint
6
ByLayer
62
256
370
-1
100
AcDbLine
10
1.75
20
8
11
1.75
21
10
0
LINE
5
C7
100
AcDbEntity
8
M3_ScrewJoint
6
ByLayer
62
256
370
-1
100
AcDbLine
10
1.75
20
0
11
1.75
21
5.5
0
LINE
5
C8
100
AcDbEntity
8
M3_ScrewJoint
6
ByLayer
62
256
370
-1
100
AcDbLine
10
-3
20
5.5
11
-1.75
21
5.5
0
LINE
5
C9
100
AcDbEntity
8
M3_ScrewJoint
6
ByLayer
62
256
370
-1
100
AcDbLine
10
1.75
20
5.5
11
3
21
5.5
0
LINE
5
CA
100
AcDbEntity
8
M3_ScrewJoint
6
ByLayer
62
256
370
-1
100
AcDbLine
10
3
20
8
11
1.75
21
8
0
LINE
5
CB
100
AcDbEntity
8
M3_ScrewJoint
6
ByLayer
62
256
370
-1
100
AcDbLine
10
-1.75
20
8
11
-3
21
8
0
ENDBLK
5
59
330
57
100
AcDbEntity
8
0
100
AcDbBlockEnd
0
BLOCK
5
5B
330
5A
100
AcDbEntity
8
0
100
AcDbBlockBegin
2
2Pole_PowerConnector-0
70
0
10
0
20
0
3
2Pole_PowerConnector-0
1

0
CIRCLE
5
CC
100
AcDbEntity
8
2xPowerConn_MountingHoles
6
ByLayer
62
256
370
-1
100
AcDbCircle
10
-9
20
0
40
6
0
CIRCLE
5
CD
100
AcDbEntity
8
2xPowerConn_MountingHoles
6
ByLayer
62
256
370
-1
100
AcDbCircle
10
9
20
0
40
6
0
LINE
5
CE
100
AcDbEntity
8
2xPowerConn_Outer
6
ByLayer
62
256
370
-1
100
AcDbLine
10
-9
20
7.5
11
9
21
7.5
0
LINE
5
CF
100
AcDbEntity
8
2xPowerConn_Outer
6
ByLayer
62
256
370
-1
100
AcDbLine
10
9
20
-7.5
11
-9
21
-7.5
0
ARC
5
D0
100
AcDbEntity
8
2xPowerConn_Outer
6
ByLayer
62
256
370
-1
100
AcDbCircle
10
-9
20
0
40
7.5
100
AcDbArc
50
90
51
270
0
ARC
5
D1
100
AcDbEntity
8
2xPowerConn_Outer
6
ByLayer
62
256
370
-1
100
AcDbCircle
10
9
20
0
40
7.5
100
AcDbArc
50
270
51
90
0
ENDBLK
5
5C
330
5A
100
AcDbEntity
8
0
100
AcDbBlockEnd
0
BLOCK
5
5E
330
5D
100
AcDbEntity
8
0
100
AcDbBlockBegin
2
2Pole_PowerConnector-1
70
0
10
0
20
0
3
2Pole_PowerConnector-1
1

0
CIRCLE
5
D2
100
AcDbEntity
8
2xPowerConn_MountingHoles
6
ByLayer
62
256
370
-1
100
AcDbCircle
10
-9
20
0
40
6
0
CIRCLE
5
D3
100
AcDbEntity
8
2xPowerConn_MountingHoles
6
ByLayer
62
256
370
-1
100
AcDbCircle
10
9
20
0
40
6
0
LINE
5
D4
100
AcDbEntity
8
2xPowerConn_Outer
6
ByLayer
62
256
370
-1
100
AcDbLine
10
-9
20
7.5
11
9
21
7.5
0
LINE
5
D5
100
AcDbEntity
8
2xPowerConn_Outer
6
ByLayer
62
256
370
-1
100
AcDbLine
10
9
20
-7.5
11
-9
21
-7.5
0
ARC
5
D6
100
AcDbEntity
8
2xPowerConn_Outer
6
ByLayer
62
256
370
-1
100
AcDbCircle
10
-9
20
0
40
7.5
100
AcDbArc
50
90
51
270
0
ARC
5
D7
100
AcDbEntity
8
2xPowerConn_Outer
6
ByLayer
62
256
370
-1
100
AcDbCircle
10
9
20
0
40
7.5
100
AcDbArc
50
270
51
90
0
ENDBLK
5
5F
330
5D
100
AcDbEntity
8
0
100
AcDbBlockEnd
0
BLOCK
5
61
330
60
100
AcDbEntity
8
0
100
AcDbBlockBegin
2
2Pole_PowerConnector-2
70
0
10
0
20
0
3
2Pole_PowerConnector-2
1

0
CIRCLE
5
D8
100
AcDbEntity
8
2xPowerConn_MountingHoles
6
ByLayer
62
256
370
-1
100
AcDbCircle
10
-9
20
0
40
6
0
CIRCLE
5
D9
100
AcDbEntity
8
2xPowerConn_MountingHoles
6
ByLayer
62
256
370
-1
100
AcDbCircle
10
9
20
0
40
6
0
LINE
5
DA
100
AcDbEntity
8
2xPowerConn_Outer
6
ByLayer
62
256
370
-1
100
AcDbLine
10
-9
20
7.5
11
9
21
7.5
0
LINE
5
DB
100
AcDbEntity
8
2xPowerConn_Outer
6
ByLayer
62
256
370
-1
100
AcDbLine
10
9
20
-7.5
11
-9
21
-7.5
0
ARC
5
DC
100
AcDbEntity
8
2xPowerConn_Outer
6
ByLayer
62
256
370
-1
100
AcDbCircle
10
-9
20
0
40
7.5
100
AcDbArc
50
90
51
270
0
ARC
5
DD
100
AcDbEntity
8
2xPowerConn_Outer
6
ByLayer
62
256
370
-1
100
AcDbCircle
10
9
20
0
40
7.5
100
AcDbArc
50
270
51
90
0
ENDBLK
5
62
330
60
100
AcDbEntity
8
0
100
AcDbBlockEnd
0
BLOCK
5
64
330
63
100
AcDbEntity
8
0
100
AcDbBlockBegin
2
2Pole_PowerConnector-3
70
0
10
0
20
0
3
2Pole_PowerConnector-3
1

0
CIRCLE
5
DE
100
AcDbEntity
8
2xPowerConn_MountingHoles
6
ByLayer
62
256
370
-1
100
AcDbCircle
10
-9
20
0
40
6
0
CIRCLE
5
DF
100
AcDbEntity
8
2xPowerConn_MountingHoles
6
ByLayer
62
256
370
-1
100
AcDbCircle
10
9
20
0
40
6
0
LINE
5
E0
100
AcDbEntity
8
2xPowerConn_Outer
6
ByLayer
62
256
370
-1
100
AcDbLine
10
-9
20
7.5
11
9
21
7.5
0
LINE
5
E1
100
AcDbEntity
8
2xPowerConn_Outer
6
ByLayer
62
256
370
-1
100
AcDbLine
10
9
20
-7.5
11
-9
21
-7.5
0
ARC
5
E2
100
AcDbEntity
8
2xPowerConn_Outer
6
ByLayer
62
256
370
-1
100
AcDbCircle
10
-9
20
0
40
7.5
100
AcDbArc
50
90
51
270
0
ARC
5
E3
100
AcDbEntity
8
2xPowerConn_Outer
6
ByLayer
62
256
370
-1
100
AcDbCircle
10
9
20
0
40
7.5
100
AcDbArc
50
270
51
90
0
ENDBLK
5
65
330
63
100
AcDbEntity
8
0
100
AcDbBlockEnd
0
BLOCK
5
67
330
66
100
AcDbEntity
8
0
100
AcDbBlockBegin
2
2Pole_PowerConnector-4
70
0
10
0
20
0
3
2Pole_PowerConnector-4
1

0
CIRCLE
5
E4
100
AcDbEntity
8
2xPowerConn_MountingHoles
6
ByLayer
62
256
370
-1
100
AcDbCircle
10
-9
20
0
40
6
0
CIRCLE
5
E5
100
AcDbEntity
8
2xPowerConn_MountingHoles
6
ByLayer
62
256
370
-1
100
AcDbCircle
10
9
20
0
40
6
0
LINE
5
E6
100
AcDbEntity
8
2xPowerConn_Outer
6
ByLayer
62
256
370
-1
100
AcDbLine
10
-9
20
7.5
11
9
21
7.5
0
LINE
5
E7
100
AcDbEntity
8
2xPowerConn_Outer
6
ByLayer
62
256
370
-1
100
AcDbLine
10
9
20
-7.5
11
-9
21
-7.5
0
ARC
5
E8
100
AcDbEntity
8
2xPowerConn_Outer
6
ByLayer
62
256
370
-1
100
AcDbCircle
10
-9
20
0
40
7.5
100
AcDbArc
50
90
51
270
0
ARC
5
E9
100
AcDbEntity
8
2xPowerConn_Outer
6
ByLayer
62
256
370
-1
100
AcDbCircle
10
9
20
0
40
7.5
100
AcDbArc
50
270
51
90
0
ENDBLK
5
68
330
66
100
AcDbEntity
8
0
100
AcDbBlockEnd
0
BLOCK
5
6A
330
69
100
AcDbEntity
8
0
100
AcDbBlockBegin
2
2Pole_PowerConnector-5
70
0
10
0
20
0
3
2Pole_PowerConnector-5
1

0
CIRCLE
5
EA
100
AcDbEntity
8
2xPowerConn_MountingHoles
6
ByLayer
62
256
370
-1
100
AcDbCircle
10
-9
20
0
40
6
0
CIRCLE
5
EB
100
AcDbEntity
8
2xPowerConn_MountingHoles
6
ByLayer
62
256
370
-1
100
AcDbCircle
10
9
20
0
40
6
0
LINE
5
EC
100
AcDbEntity
8
2xPowerConn_Outer
6
ByLayer
62
256
370
-1
100
AcDbLine
10
-9
20
7.5
11
9
21
7.5
0
LINE
5
ED
100
AcDbEntity
8
2xPowerConn_Outer
6
ByLayer
62
256
370
-1
100
AcDbLine
10
9
20
-7.5
11
-9
21
-7.5
0
ARC
5
EE
100
AcDbEntity
8
2xPowerConn_Outer
6
ByLayer
62
256
370
-1
100
AcDbCircle
10
-9
20
0
40
7.5
100
AcDbArc
50
90
51
270
0
ARC
5
EF
100
AcDbEntity
8
2xPowerConn_Outer
6
ByLayer
62
256
370
-1
100
AcDbCircle
10
9
20
0
40
7.5
100
AcDbArc
50
270
51
90
0
ENDBLK
5
6B
330
69
100
AcDbEntity
8
0
100
AcDbBlockEnd
0
BLOCK
5
6D
330
6C
100
AcDbEntity
8
0
100
AcDbBlockBegin
2
2Pole_PowerConnector-6
70
0
10
0
20
0
3
2Pole_PowerConnector-6
1

0
CIRCLE
5
F0
100
AcDbEntity
8
2xPowerConn_MountingHoles
6
ByLayer
62
256
370
-1
100
AcDbCircle
10
-9
20
0
40
6
0
CIRCLE
5
F1
100
AcDbEntity
8
2xPowerConn_MountingHoles
6
ByLayer
62
256
370
-1
100
AcDbCircle
10
9
20
0
40
6
0
LINE
5
F2
100
AcDbEntity
8
2xPowerConn_Outer
6
ByLayer
62
256
370
-1
100
AcDbLine
10
-9
20
7.5
11
9
21
7.5
0
LINE
5
F3
100
AcDbEntity
8
2xPowerConn_Outer
6
ByLayer
62
256
370
-1
100
AcDbLine
10
9
20
-7.5
11
-9
21
-7.5
0
ARC
5
F4
100
AcDbEntity
8
2xPowerConn_Outer
6
ByLayer
62
256
370
-1
100
AcDbCircle
10
-9
20
0
40
7.5
100
AcDbArc
50
90
51
270
0
ARC
5
F5
100
AcDbEntity
8
2xPowerConn_Outer
6
ByLayer
62
256
370
-1
100
AcDbCircle
10
9
20
0
40
7.5
100
AcDbArc
50
270
51
90
0
ENDBLK
5
6E
330
6C
100
AcDbEntity
8
0
100
AcDbBlockEnd
0
BLOCK
5
70
330
6F
100
AcDbEntity
8
0
100
AcDbBlockBegin
2
2Pole_PowerConnector-7
70
0
10
0
20
0
3
2Pole_PowerConnector-7
1

0
CIRCLE
5
F6
100
AcDbEntity
8
2xPowerConn_MountingHoles
6
ByLayer
62
256
370
-1
100
AcDbCircle
10
-9
20
0
40
6
0
CIRCLE
5
F7
100
AcDbEntity
8
2xPowerConn_MountingHoles
6
ByLayer
62
256
370
-1
100
AcDbCircle
10
9
20
0
40
6
0
LINE
5
F8
100
AcDbEntity
8
2xPowerConn_Outer
6
ByLayer
62
256
370
-1
100
AcDbLine
10
-9
20
7.5
11
9
21
7.5
0
LINE
5
F9
100
AcDbEntity
8
2xPowerConn_Outer
6
ByLayer
62
256
370
-1
100
AcDbLine
10
9
20
-7.5
11
-9
21
-7.5
0
ARC
5
FA
100
AcDbEntity
8
2xPowerConn_Outer
6
ByLayer
62
256
370
-1
100
AcDbCircle
10
-9
20
0
40
7.5
100
AcDbArc
50
90
51
270
0
ARC
5
FB
100
AcDbEntity
8
2xPowerConn_Outer
6
ByLayer
62
256
370
-1
100
AcDbCircle
10
9
20
0
40
7.5
100
AcDbArc
50
270
51
90
0
ENDBLK
5
71
330
6F
100
AcDbEntity
8
0
100
AcDbBlockEnd
0
BLOCK
5
73
330
72
100
AcDbEntity
8
0
100
AcDbBlockBegin
2
2Pole_PowerConnector-8
70
0
10
0
20
0
3
2Pole_PowerConnector-8
1

0
CIRCLE
5
FC
100
AcDbEntity
8
2xPowerConn_MountingHoles
6
ByLayer
62
256
370
-1
100
AcDbCircle
10
-9
20
0
40
6
0
CIRCLE
5
FD
100
AcDbEntity
8
2xPowerConn_MountingHoles
6
ByLayer
62
256
370
-1
100
AcDbCircle
10
9
20
0
40
6
0
LINE
5
FE
100
AcDbEntity
8
2xPowerConn_Outer
6
ByLayer
62
256
370
-1
100
AcDbLine
10
-9
20
7.5
11
9
21
7.5
0
LINE
5
FF
100
AcDbEntity
8
2xPowerConn_Outer
6
ByLayer
62
256
370
-1
100
AcDbLine
10
9
20
-7.5
11
-9
21
-7.5
0
ARC
5
100
100
AcDbEntity
8
2xPowerConn_Outer
6
ByLayer
62
256
370
-1
100
AcDbCircle
10
-9
20
0
40
7.5
100
AcDbArc
50
90
51
270
0
ARC
5
101
100
AcDbEntity
8
2xPowerConn_Outer
6
ByLayer
62
256
370
-1
100
AcDbCircle
10
9
20
0
40
7.5
100
AcDbArc
50
270
51
90
0
ENDBLK
5
74
330
72
100
AcDbEntity
8
0
100
AcDbBlockEnd
0
BLOCK
5
76
330
75
100
AcDbEntity
8
0
100
AcDbBlockBegin
2
NKK_CW-Series_Switch_Cutout-0
70
0
10
0
20
0
3
NKK_CW-Series_Switch_Cutout-0
1

0
LINE
5
102
100
AcDbEntity
8
NKK-CW-SW_Cutout
6
ByLayer
62
256
370
-1
100
AcDbLine
10
-6.45
20
-9.6
11
6.45
21
-9.6
0
LINE
5
103
100
AcDbEntity
8
NKK-CW-SW_Cutout
6
ByLayer
62
256
370
-1
100
AcDbLine
10
-6.45
20
-9.6
11
-6.45
21
9.6
0
LINE
5
104
100
AcDbEntity
8
NKK-CW-SW_Cutout
6
ByLayer
62
256
370
-1
100
AcDbLine
10
6.45
20
-9.6
11
6.45
21
9.6
0
LINE
5
105
100
AcDbEntity
8
NKK-CW-SW_Cutout
6
ByLayer
62
256
370
-1
100
AcDbLine
10
-6.45
20
9.6
11
6.45
21
9.6
0
ENDBLK
5
77
330
75
100
AcDbEntity
8
0
100
AcDbBlockEnd
0
BLOCK
5
79
330
78
100
AcDbEntity
8
0
100
AcDbBlockBegin
2
NKK_CW-Series_Switch_Cutout-1
70
0
10
0
20
0
3
NKK_CW-Series_Switch_Cutout-1
1

0
LINE
5
106
100
AcDbEntity
8
NKK-CW-SW_Cutout
6
ByLayer
62
256
370
-1
100
AcDbLine
10
-6.45
20
-9.6
11
6.45
21
-9.6
0
LINE
5
107
100
AcDbEntity
8
NKK-CW-SW_Cutout
6
ByLayer
62
256
370
-1
100
AcDbLine
10
-6.45
20
-9.6
11
-6.45
21
9.6
0
LINE
5
108
100
AcDbEntity
8
NKK-CW-SW_Cutout
6
ByLayer
62
256
370
-1
100
AcDbLine
10
6.45
20
-9.6
11
6.45
21
9.6
0
LINE
5
109
100
AcDbEntity
8
NKK-CW-SW_Cutout
6
ByLayer
62
256
370
-1
100
AcDbLine
10
-6.45
20
9.6
11
6.45
21
9.6
0
ENDBLK
5
7A
330
78
100
AcDbEntity
8
0
100
AcDbBlockEnd
0
BLOCK
5
7C
330
7B
100
AcDbEntity
8
0
100
AcDbBlockBegin
2
NKK_CW-Series_Switch_Cutout-2
70
0
10
0
20
0
3
NKK_CW-Series_Switch_Cutout-2
1

0
LINE
5
10A
100
AcDbEntity
8
NKK-CW-SW_Cutout
6
ByLayer
62
256
370
-1
100
AcDbLine
10
-6.45
20
-9.6
11
6.45
21
-9.6
0
LINE
5
10B
100
AcDbEntity
8
NKK-CW-SW_Cutout
6
ByLayer
62
256
370
-1
100
AcDbLine
10
-6.45
20
-9.6
11
-6.45
21
9.6
0
LINE
5
10C
100
AcDbEntity
8
NKK-CW-SW_Cutout
6
ByLayer
62
256
370
-1
100
AcDbLine
10
6.45
20
-9.6
11
6.45
21
9.6
0
LINE
5
10D
100
AcDbEntity
8
NKK-CW-SW_Cutout
6
ByLayer
62
256
370
-1
100
AcDbLine
10
-6.45
20
9.6
11
6.45
21
9.6
0
ENDBLK
5
7D
330
7B
100
AcDbEntity
8
0
100
AcDbBlockEnd
0
BLOCK
5
7F
330
7E
100
AcDbEntity
8
0
100
AcDbBlockBegin
2
NKK_CW-Series_Switch_Cutout-3
70
0
10
0
20
0
3
NKK_CW-Series_Switch_Cutout-3
1

0
LINE
5
10E
100
AcDbEntity
8
NKK-CW-SW_Cutout
6
ByLayer
62
256
370
-1
100
AcDbLine
10
-6.45
20
-9.6
11
6.45
21
-9.6
0
LINE
5
10F
100
AcDbEntity
8
NKK-CW-SW_Cutout
6
ByLayer
62
256
370
-1
100
AcDbLine
10
-6.45
20
-9.6
11
-6.45
21
9.6
0
LINE
5
110
100
AcDbEntity
8
NKK-CW-SW_Cutout
6
ByLayer
62
256
370
-1
100
AcDbLine
10
6.45
20
-9.6
11
6.45
21
9.6
0
LINE
5
111
100
AcDbEntity
8
NKK-CW-SW_Cutout
6
ByLayer
62
256
370
-1
100
AcDbLine
10
-6.45
20
9.6
11
6.45
21
9.6
0
ENDBLK
5
80
330
7E
100
AcDbEntity
8
0
100
AcDbBlockEnd
0
BLOCK
5
82
330
81
100
AcDbEntity
8
0
100
AcDbBlockBegin
2
NKK_CW-Series_Switch_Cutout-4
70
0
10
0
20
0
3
NKK_CW-Series_Switch_Cutout-4
1

0
LINE
5
112
100
AcDbEntity
8
NKK-CW-SW_Cutout
6
ByLayer
62
256
370
-1
100
AcDbLine
10
-6.45
20
-9.6
11
6.45
21
-9.6
0
LINE
5
113
100
AcDbEntity
8
NKK-CW-SW_Cutout
6
ByLayer
62
256
370
-1
100
AcDbLine
10
-6.45
20
-9.6
11
-6.45
21
9.6
0
LINE
5
114
100
AcDbEntity
8
NKK-CW-SW_Cutout
6
ByLayer
62
256
370
-1
100
AcDbLine
10
6.45
20
-9.6
11
6.45
21
9.6
0
LINE
5
115
100
AcDbEntity
8
NKK-CW-SW_Cutout
6
ByLayer
62
256
370
-1
100
AcDbLine
10
-6.45
20
9.6
11
6.45
21
9.6
0
ENDBLK
5
83
330
81
100
AcDbEntity
8
0
100
AcDbBlockEnd
0
BLOCK
5
85
330
84
100
AcDbEntity
8
0
100
AcDbBlockBegin
2
NKK_CW-Series_Switch_Cutout-5
70
0
10
0
20
0
3
NKK_CW-Series_Switch_Cutout-5
1

0
LINE
5
116
100
AcDbEntity
8
NKK-CW-SW_Cutout
6
ByLayer
62
256
370
-1
100
AcDbLine
10
-6.45
20
-9.6
11
6.45
21
-9.6
0
LINE
5
117
100
AcDbEntity
8
NKK-CW-SW_Cutout
6
ByLayer
62
256
370
-1
100
AcDbLine
10
-6.45
20
-9.6
11
-6.45
21
9.6
0
LINE
5
118
100
AcDbEntity
8
NKK-CW-SW_Cutout
6
ByLayer
62
256
370
-1
100
AcDbLine
10
6.45
20
-9.6
11
6.45
21
9.6
0
LINE
5
119
100
AcDbEntity
8
NKK-CW-SW_Cutout
6
ByLayer
62
256
370
-1
100
AcDbLine
10
-6.45
20
9.6
11
6.45
21
9.6
0
ENDBLK
5
86
330
84
100
AcDbEntity
8
0
100
AcDbBlockEnd
0
BLOCK
5
88
330
87
100
AcDbEntity
8
0
100
AcDbBlockBegin
2
NKK_CW-Series_Switch_Cutout-6
70
0
10
0
20
0
3
NKK_CW-Series_Switch_Cutout-6
1

0
LINE
5
11A
100
AcDbEntity
8
NKK-CW-SW_Cutout
6
ByLayer
62
256
370
-1
100
AcDbLine
10
-6.45
20
-9.6
11
6.45
21
-9.6
0
LINE
5
11B
100
AcDbEntity
8
NKK-CW-SW_Cutout
6
ByLayer
62
256
370
-1
100
AcDbLine
10
-6.45
20
-9.6
11
-6.45
21
9.6
0
LINE
5
11C
100
AcDbEntity
8
NKK-CW-SW_Cutout
6
ByLayer
62
256
370
-1
100
AcDbLine
10
6.45
20
-9.6
11
6.45
21
9.6
0
LINE
5
11D
100
AcDbEntity
8
NKK-CW-SW_Cutout
6
ByLayer
62
256
370
-1
100
AcDbLine
10
-6.45
20
9.6
11
6.45
21
9.6
0
ENDBLK
5
89
330
87
100
AcDbEntity
8
0
100
AcDbBlockEnd
0
BLOCK
5
8B
330
8A
100
AcDbEntity
8
0
100
AcDbBlockBegin
2
NKK_M-Series_TN-Type-0
70
0
10
0
20
0
3
NKK_M-Series_TN-Type-0
1

0
LINE
5
11E
100
AcDbEntity
8
NKK-M-SW_Cutout
6
ByLayer
62
256
370
-1
100
AcDbLine
10
-5.05
20
-8.9
11
-5.05
21
8.9
0
LINE
5
11F
100
AcDbEntity
8
NKK-M-SW_Cutout
6
ByLayer
62
256
370
-1
100
AcDbLine
10
5.05
20
-8.9
11
5.05
21
8.9
0
LINE
5
120
100
AcDbEntity
8
NKK-M-SW_Cutout
6
ByLayer
62
256
370
-1
100
AcDbLine
10
-5.05
20
8.9
11
5.05
21
8.9
0
LINE
5
121
100
AcDbEntity
8
NKK-M-SW_Cutout
6
ByLayer
62
256
370
-1
100
AcDbLine
10
-5.05
20
-8.9
11
5.05
21
-8.9
0
CIRCLE
5
122
100
AcDbEntity
8
NKK-M-SW_MountingHoles
6
ByLayer
62
256
370
-1
100
AcDbCircle
10
0
20
11.9
40
1.4
0
CIRCLE
5
123
100
AcDbEntity
8
NKK-M-SW_MountingHoles
6
ByLayer
62
256
370
-1
100
AcDbCircle
10
0
20
-11.9
40
1.4
0
ENDBLK
5
8C
330
8A
100
AcDbEntity
8
0
100
AcDbBlockEnd
0
BLOCK
5
8E
330
8D
100
AcDbEntity
8
0
100
AcDbBlockBegin
2
2Pole_PowerConnector-9
70
0
10
0
20
0
3
2Pole_PowerConnector-9
1

0
CIRCLE
5
124
100
AcDbEntity
8
2xPowerConn_MountingHoles
6
ByLayer
62
256
370
-1
100
AcDbCircle
10
-9
20
0
40
6
0
CIRCLE
5
125
100
AcDbEntity
8
2xPowerConn_MountingHoles
6
ByLayer
62
256
370
-1
100
AcDbCircle
10
9
20
0
40
6
0
LINE
5
126
100
AcDbEntity
8
2xPowerConn_Outer
6
ByLayer
62
256
370
-1
100
AcDbLine
10
-9
20
7.5
11
9
21
7.5
0
LINE
5
127
100
AcDbEntity
8
2xPowerConn_Outer
6
ByLayer
62
256
370
-1
100
AcDbLine
10
9
20
-7.5
11
-9
21
-7.5
0
ARC
5
128
100
AcDbEntity
8
2xPowerConn_Outer
6
ByLayer
62
256
370
-1
100
AcDbCircle
10
-9
20
0
40
7.5
100
AcDbArc
50
90
51
270
0
ARC
5
129
100
AcDbEntity
8
2xPowerConn_Outer
6
ByLayer
62
256
370
-1
100
AcDbCircle
10
9
20
0
40
7.5
100
AcDbArc
50
270
51
90
0
ENDBLK
5
8F
330
8D
100
AcDbEntity
8
0
100
AcDbBlockEnd
0
BLOCK
5
91
330
90
100
AcDbEntity
8
0
100
AcDbBlockBegin
2
Ground-0
70
0
10
0
20
0
3
Ground-0
1

0
LINE
5
12A
100
AcDbEntity
8
0
6
ByLayer
62
256
370
-1
100
AcDbLine
10
-1
20
-1
11
1
21
-1
0
LINE
5
12B
100
AcDbEntity
8
0
6
ByLayer
62
256
370
-1
100
AcDbLine
10
-2
20
0
11
2
21
0
0
LINE
5
12C
100
AcDbEntity
8
0
6
ByLayer
62
256
370
-1
100
AcDbLine
10
-3
20
1
11
3
21
1
0
ENDBLK
5
92
330
90
100
AcDbEntity
8
0
100
AcDbBlockEnd
0
BLOCK
5
94
330
93
100
AcDbEntity
8
0
100
AcDbBlockBegin
2
Ground-1
70
0
10
0
20
0
3
Ground-1
1

0
LINE
5
12D
100
AcDbEntity
8
0
6
ByLayer
62
256
370
-1
100
AcDbLine
10
-1
20
-1
11
1
21
-1
0
LINE
5
12E
100
AcDbEntity
8
0
6
ByLayer
62
256
370
-1
100
AcDbLine
10
-2
20
0
11
2
21
0
0
LINE
5
12F
100
AcDbEntity
8
0
6
ByLayer
62
256
370
-1
100
AcDbLine
10
-3
20
1
11
3
21
1
0
ENDBLK
5
95
330
93
100
AcDbEntity
8
0
100
AcDbBlockEnd
0
BLOCK
5
97
330
96
100
AcDbEntity
8
0
100
AcDbBlockBegin
2
Ground-2
70
0
10
0
20
0
3
Ground-2
1

0
LINE
5
130
100
AcDbEntity
8
0
6
ByLayer
62
256
370
-1
100
AcDbLine
10
-1
20
-1
11
1
21
-1
0
LINE
5
131
100
AcDbEntity
8
0
6
ByLayer
62
256
370
-1
100
AcDbLine
10
-2
20
0
11
2
21
0
0
LINE
5
132
100
AcDbEntity
8
0
6
ByLayer
62
256
370
-1
100
AcDbLine
10
-3
20
1
11
3
21
1
0
ENDBLK
5
98
330
96
100
AcDbEntity
8
0
100
AcDbBlockEnd
0
BLOCK
5
9A
330
99
100
AcDbEntity
8
0
100
AcDbBlockBegin
2
Ground-3
70
0
10
0
20
0
3
Ground-3
1

0
LINE
5
133
100
AcDbEntity
8
0
6
ByLayer
62
256
370
-1
100
AcDbLine
10
-1
20
-1
11
1
21
-1
0
LINE
5
134
100
AcDbEntity
8
0
6
ByLayer
62
256
370
-1
100
AcDbLine
10
-2
20
0
11
2
21
0
0
LINE
5
135
100
AcDbEntity
8
0
6
ByLayer
62
256
370
-1
100
AcDbLine
10
-3
20
1
11
3
21
1
0
ENDBLK
5
9B
330
99
100
AcDbEntity
8
0
100
AcDbBlockEnd
0
BLOCK
5
9D
330
9C
100
AcDbEntity
8
0
100
AcDbBlockBegin
2
Ground-4
70
0
10
0
20
0
3
Ground-4
1

0
LINE
5
136
100
AcDbEntity
8
0
6
ByLayer
62
256
370
-1
100
AcDbLine
10
-1
20
-1
11
1
21
-1
0
LINE
5
137
100
AcDbEntity
8
0
6
ByLayer
62
256
370
-1
100
AcDbLine
10
-2
20
0
11
2
21
0
0
LINE
5
138
100
AcDbEntity
8
0
6
ByLayer
62
256
370
-1
100
AcDbLine
10
-3
20
1
11
3
21
1
0
ENDBLK
5
9E
330
9C
100
AcDbEntity
8
0
100
AcDbBlockEnd
0
BLOCK
5
A0
330
9F
100
AcDbEntity
8
0
100
AcDbBlockBegin
2
Ground-5
70
0
10
0
20
0
3
Ground-5
1

0
LINE
5
139
100
AcDbEntity
8
0
6
ByLayer
62
256
370
-1
100
AcDbLine
10
-1
20
-1
11
1
21
-1
0
LINE
5
13A
100
AcDbEntity
8
0
6
ByLayer
62
256
370
-1
100
AcDbLine
10
-2
20
0
11
2
21
0
0
LINE
5
13B
100
AcDbEntity
8
0
6
ByLayer
62
256
370
-1
100
AcDbLine
10
-3
20
1
11
3
21
1
0
ENDBLK
5
A1
330
9F
100
AcDbEntity
8
0
100
AcDbBlockEnd
0
BLOCK
5
A3
330
A2
100
AcDbEntity
8
0
100
AcDbBlockBegin
2
Ground-6
70
0
10
0
20
0
3
Ground-6
1

0
LINE
5
13C
100
AcDbEntity
8
0
6
ByLayer
62
256
370
-1
100
AcDbLine
10
-1
20
-1
11
1
21
-1
0
LINE
5
13D
100
AcDbEntity
8
0
6
ByLayer
62
256
370
-1
100
AcDbLine
10
-2
20
0
11
2
21
0
0
LINE
5
13E
100
AcDbEntity
8
0
6
ByLayer
62
256
370
-1
100
AcDbLine
10
-3
20
1
11
3
21
1
0
ENDBLK
5
A4
330
A2
100
AcDbEntity
8
0
100
AcDbBlockEnd
0
BLOCK
5
A6
330
A5
100
AcDbEntity
8
0
100
AcDbBlockBegin
2
Ground-7
70
0
10
0
20
0
3
Ground-7
1

0
LINE
5
13F
100
AcDbEntity
8
0
6
ByLayer
62
256
370
-1
100
AcDbLine
10
-1
20
-1
11
1
21
-1
0
LINE
5
140
100
AcDbEntity
8
0
6
ByLayer
62
256
370
-1
100
AcDbLine
10
-2
20
0
11
2
21
0
0
LINE
5
141
100
AcDbEntity
8
0
6
ByLayer
62
256
370
-1
100
AcDbLine
10
-3
20
1
11
3
21
1
0
ENDBLK
5
A7
330
A5
100
AcDbEntity
8
0
100
AcDbBlockEnd
0
BLOCK
5
A9
330
A8
100
AcDbEntity
8
0
100
AcDbBlockBegin
2
Ground-8
70
0
10
0
20
0
3
Ground-8
1

0
LINE
5
142
100
AcDbEntity
8
0
6
ByLayer
62
256
370
-1
100
AcDbLine
10
-1
20
-1
11
1
21
-1
0
LINE
5
143
100
AcDbEntity
8
0
6
ByLayer
62
256
370
-1
100
AcDbLine
10
-2
20
0
11
2
21
0
0
LINE
5
144
100
AcDbEntity
8
0
6
ByLayer
62
256
370
-1
100
AcDbLine
10
-3
20
1
11
3
21
1
0
ENDBLK
5
AA
330
A8
100
AcDbEntity
8
0
100
AcDbBlockEnd
0
ENDSEC
0
SECTION
2
ENTITIES
0
LINE
5
145
100
AcDbEntity
8
PanelOuter
6
ByLayer
62
256
370
-1
100
AcDbLine
10
10
20
210
11
10
21
191.75
0
LINE
5
146
100
AcDbEntity
8
PanelOuter
6
ByLayer
62
256
370
-1
100
AcDbLine
10
10
20
18.25
11
10
21
0
0
LINE
5
147
100
AcDbEntity
8
PanelOuter
6
ByLayer
62
256
370
-1
100
AcDbLine
10
10
20
210
11
190
21
210
0
LINE
5
148
100
AcDbEntity
8
PanelOuter
6
ByLayer
62
256
370
-1
100
AcDbLine
10
10
20
0
11
190
21
0
0
LINE
5
149
100
AcDbEntity
8
PanelOuter
6
ByLayer
62
256
370
-1
100
AcDbLine
10
190
20
210
11
190
21
191.75
0
LINE
5
14A
100
AcDbEntity
8
PanelOuter
6
ByLayer
62
256
370
-1
100
AcDbLine
10
190
20
18.25
11
190
21
0
0
LINE
5
14B
100
AcDbEntity
8
PanelOuter
6
ByLayer
62
256
370
-1
100
AcDbLine
10
10
20
30
11
7
21
30
0
LINE
5
14C
100
AcDbEntity
8
PanelOuter
6
ByLayer
62
256
370
-1
100
AcDbLine
10
7
20
30
11
7
21
40
0
LINE
5
14D
100
AcDbEntity
8
PanelOuter
6
ByLayer
62
256
370
-1
100
AcDbLine
10
7
20
40
11
10
21
40
0
LINE
5
14E
100
AcDbEntity
8
PanelOuter
6
ByLayer
62
256
370
-1
100
AcDbLine
10
10
20
180
11
7
21
180
0
LINE
5
14F
100
AcDbEntity
8
PanelOuter
6
ByLayer
62
256
370
-1
100
AcDbLine
10
7
20
180
11
7
21
170
0
LINE
5
150
100
AcDbEntity
8
PanelOuter
6
ByLayer
62
256
370
-1
100
AcDbLine
10
7
20
170
11
10
21
170
0
LINE
5
151
100
AcDbEntity
8
PanelOuter
6
ByLayer
62
256
370
-1
100
AcDbLine
10
10
20
188.25
11
10
21
180
0
LINE
5
152
100
AcDbEntity
8
PanelOuter
6
ByLayer
62
256
370
-1
100
AcDbLine
10
10
20
170
11
10
21
106.75
0
LINE
5
153
100
AcDbEntity
8
PanelOuter
6
ByLayer
62
256
370
-1
100
AcDbLine
10
10
20
103.25
11
10
21
40
0
LINE
5
154
100
AcDbEntity
8
PanelOuter
6
ByLayer
62
256
370
-1
100
AcDbLine
10
10
20
30
11
10
21
21.75
0
LINE
5
155
100
AcDbEntity
8
PanelOuter
6
ByLayer
62
256
370
-1
100
AcDbLine
10
190
20
30
11
193
21
30
0
LINE
5
156
100
AcDbEntity
8
PanelOuter
6
ByLayer
62
256
370
-1
100
AcDbLine
10
193
20
30
11
193
21
40
0
LINE
5
157
100
AcDbEntity
8
PanelOuter
6
ByLayer
62
256
370
-1
100
AcDbLine
10
193
20
40
11
190
21
40
0
LINE
5
158
100
AcDbEntity
8
PanelOuter
6
ByLayer
62
256
370
-1
100
AcDbLine
10
190
20
180
11
193
21
180
0
LINE
5
159
100
AcDbEntity
8
PanelOuter
6
ByLayer
62
256
370
-1
100
AcDbLine
10
193
20
180
11
193
21
170
0
LINE
5
15A
100
AcDbEntity
8
PanelOuter
6
ByLayer
62
256
370
-1
100
AcDbLine
10
193
20
170
11
190
21
170
0
LINE
5
15B
100
AcDbEntity
8
PanelOuter
6
ByLayer
62
256
370
-1
100
AcDbLine
10
190
20
188.25
11
190
21
180
0
LINE
5
15C
100
AcDbEntity
8
PanelOuter
6
ByLayer
62
256
370
-1
100
AcDbLine
10
190
20
170
11
190
21
106.75
0
LINE
5
15D
100
AcDbEntity
8
PanelOuter
6
ByLayer
62
256
370
-1
100
AcDbLine
10
190
20
103.25
11
190
21
40
0
LINE
5
15E
100
AcDbEntity
8
PanelOuter
6
ByLayer
62
256
370
-1
100
AcDbLine
10
190
20
30
11
190
21
21.75
0
CIRCLE
5
15F
100
AcDbEntity
8
SwitchOption_Cutouts
6
ByLayer
62
256
370
-1
100
AcDbCircle
10
130
20
190
40
4
0
INSERT
5
160
100
AcDbEntity
8
SwitchOption_Cutouts
6
ByLayer
62
256
370
-1
100
AcDbBlockReference
2
NKK_CW-Series_Switch_Cutout-2
10
160
20
190
30
0
41
1
42
1
43
0
50
90
70
1
71
1
44
0
45
0
0
CIRCLE
5
161
100
AcDbEntity
8
SwitchOption_Cutouts
6
ByLayer
62
256
370
-1
100
AcDbCircle
10
130
20
165
40
4
0
INSERT
5
162
100
AcDbEntity
8
SwitchOption_Cutouts
6
ByLayer
62
256
370
-1
100
AcDbBlockReference
2
NKK_CW-Series_Switch_Cutout-3
10
160
20
165
30
0
41
1
42
1
43
0
50
90
70
1
71
1
44
0
45
0
0
CIRCLE
5
163
100
AcDbEntity
8
SwitchOption_Cutouts
6
ByLayer
62
256
370
-1
100
AcDbCircle
10
130
20
140
40
4
0
INSERT
5
164
100
AcDbEntity
8
SwitchOption_Cutouts
6
ByLayer
62
256
370
-1
100
AcDbBlockReference
2
NKK_CW-Series_Switch_Cutout-4
10
160
20
140
30
0
41
1
42
1
43
0
50
90
70
1
71
1
44
0
45
0
0
CIRCLE
5
165
100
AcDbEntity
8
SwitchOption_Cutouts
6
ByLayer
62
256
370
-1
100
AcDbCircle
10
130
20
115
40
4
0
INSERT
5
166
100
AcDbEntity
8
SwitchOption_Cutouts
6
ByLayer
62
256
370
-1
100
AcDbBlockReference
2
NKK_CW-Series_Switch_Cutout-5
10
160
20
115
30
0
41
1
42
1
43
0
50
90
70
1
71
1
44
0
45
0
0
CIRCLE
5
167
100
AcDbEntity
8
SwitchOption_Cutouts
6
ByLayer
62
256
370
-1
100
AcDbCircle
10
130
20
90
40
4
0
INSERT
5
168
100
AcDbEntity
8
SwitchOption_Cutouts
6
ByLayer
62
256
370
-1
100
AcDbBlockReference
2
NKK_CW-Series_Switch_Cutout-6
10
160
20
90
30
0
41
1
42
1
43
0
50
90
70
1
71
1
44
0
45
0
0
INSERT
5
169
100
AcDbEntity
8
PanelOuter
6
ByLayer
62
256
370
-1
100
AcDbBlockReference
2
M3_ScrewJoint-0
10
10
20
190
30
0
41
1
42
1
43
0
50
270
70
1
71
1
44
0
45
0
0
INSERT
5
16A
100
AcDbEntity
8
PanelOuter
6
ByLayer
62
256
370
-1
100
AcDbBlockReference
2
M3_ScrewJoint-1
10
10
20
105
30
0
41
1
42
1
43
0
50
270
70
1
71
1
44
0
45
0
0
INSERT
5
16B
100
AcDbEntity
8
PanelOuter
6
ByLayer
62
256
370
-1
100
AcDbBlockReference
2
M3_ScrewJoint-2
10
10
20
20
30
0
41
1
42
1
43
0
50
270
70
1
71
1
44
0
45
0
0
INSERT
5
16C
100
AcDbEntity
8
PanelOuter
6
ByLayer
62
256
370
-1
100
AcDbBlockReference
2
M3_ScrewJoint-0
10
190
20
190
30
0
41
-1
42
1
43
0
50
90
70
1
71
1
44
0
45
0
0
INSERT
5
16D
100
AcDbEntity
8
PanelOuter
6
ByLayer
62
256
370
-1
100
AcDbBlockReference
2
M3_ScrewJoint-1
10
190
20
105
30
0
41
-1
42
1
43
0
50
90
70
1
71
1
44
0
45
0
0
INSERT
5
16E
100
AcDbEntity
8
PanelOuter
6
ByLayer
62
256
370
-1
100
AcDbBlockReference
2
M3_ScrewJoint-2
10
190
20
20
30
0
41
-1
42
1
43
0
50
90
70
1
71
1
44
0
45
0
0
INSERT
5
16F
100
AcDbEntity
8
0
6
ByLayer
62
256
370
-1
100
AcDbBlockReference
2
2Pole_PowerConnector-0
10
55
20
190
30
0
41
1
42
1
43
0
50
0
70
1
71
1
44
0
45
0
0
INSERT
5
170
100
AcDbEntity
8
0
6
ByLayer
62
256
370
-1
100
AcDbBlockReference
2
2Pole_PowerConnector-1
10
55
20
165
30
0
41
1
42
1
43
0
50
0
70
1
71
1
44
0
45
0
0
INSERT
5
171
100
AcDbEntity
8
0
6
ByLayer
62
256
370
-1
100
AcDbBlockReference
2
2Pole_PowerConnector-2
10
55
20
140
30
0
41
1
42
1
43
0
50
0
70
1
71
1
44
0
45
0
0
INSERT
5
172
100
AcDbEntity
8
0
6
ByLayer
62
256
370
-1
100
AcDbBlockReference
2
2Pole_PowerConnector-3
10
55
20
115
30
0
41
1
42
1
43
0
50
0
70
1
71
1
44
0
45
0
0
INSERT
5
173
100
AcDbEntity
8
0
6
ByLayer
62
256
370
-1
100
AcDbBlockReference
2
2Pole_PowerConnector-4
10
55
20
90
30
0
41
1
42
1
43
0
50
0
70
1
71
1
44
0
45
0
0
INSERT
5
174
100
AcDbEntity
8
0
6
ByLayer
62
256
370
-1
100
AcDbBlockReference
2
2Pole_PowerConnector-8
10
55
20
20
30
0
41
1
42
1
43
0
50
0
70
1
71
1
44
0
45
0
0
INSERT
5
175
100
AcDbEntity
8
0
6
ByLayer
62
256
370
-1
100
AcDbBlockReference
2
2Pole_PowerConnector-9
10
145
20
20
30
0
41
1
42
1
43
0
50
0
70
1
71
1
44
0
45
0
0
INSERT
5
176
100
AcDbEntity
8
0
6
ByLayer
62
256
370
-1
100
AcDbBlockReference
2
2Pole_PowerConnector-7
10
55
20
55
30
0
41
1
42
1
43
0
50
0
70
1
71
1
44
0
45
0
0
INSERT
5
177
100
AcDbEntity
8
0
6
ByLayer
62
256
370
-1
100
AcDbBlockReference
2
NKK_M-Series_TN-Type-0
10
170
20
55
30
0
41
1
42
1
43
0
50
0
70
1
71
1
44
0
45
0
0
CIRCLE
5
178
100
AcDbEntity
8
MiscPanel_Cutouts
6
ByLayer
62
256
370
-1
100
AcDbCircle
10
30
20
35
40
4
0
CIRCLE
5
179
100
AcDbEntity
8
MiscPanel_Cutouts
6
ByLayer
62
256
370
-1
100
AcDbCircle
10
30
20
70
40
4
0
INSERT
5
17A
100
AcDbEntity
8
Engraving
6
ByLayer
62
256
370
-1
100
AcDbBlockReference
2
Ground-8
10
46
20
180
30
0
41
1
42
1
43
0
50
0
70
1
71
1
44
0
45
0
0
INSERT
5
17B
100
AcDbEntity
8
Engraving
6
ByLayer
62
256
370
-1
100
AcDbBlockReference
2
Ground-7
10
46
20
155
30
0
41
1
42
1
43
0
50
0
70
1
71
1
44
0
45
0
0
INSERT
5
17C
100
AcDbEntity
8
Engraving
6
ByLayer
62
256
370
-1
100
AcDbBlockReference
2
Ground-6
10
46
20
130
30
0
41
1
42
1
43
0
50
0
70
1
71
1
44
0
45
0
0
INSERT
5
17D
100
AcDbEntity
8
Engraving
6
ByLayer
62
256
370
-1
100
AcDbBlockReference
2
Ground-5
10
46
20
105
30
0
41
1
42
1
43
0
50
0
70
1
71
1
44
0
45
0
0
INSERT
5
17E
100
AcDbEntity
8
Engraving
6
ByLayer
62
256
370
-1
100
AcDbBlockReference
2
Ground-4
10
46
20
80
30
0
41
1
42
1
43
0
50
0
70
1
71
1
44
0
45
0
0
INSERT
5
17F
100
AcDbEntity
8
Engraving
6
ByLayer
62
256
370
-1
100
AcDbBlockReference
2
Ground-3
10
46
20
10
30
0
41
1
42
1
43
0
50
0
70
1
71
1
44
0
45
0
0
LINE
5
180
100
AcDbEntity
8
Engraving
6
ByLayer
62
256
370
-1
100
AcDbLine
10
136
20
13
11
136
21
9
0
LINE
5
181
100
AcDbEntity
8
Engraving
6
ByLayer
62
256
370
-1
100
AcDbLine
10
136
20
9
11
140
21
9
0
LINE
5
182
100
AcDbEntity
8
Engraving
6
ByLayer
62
256
370
-1
100
AcDbLine
10
150
20
9
11
154
21
9
0
LINE
5
183
100
AcDbEntity
8
Engraving
6
ByLayer
62
256
370
-1
100
AcDbLine
10
154
20
9
11
154
21
13
0
CIRCLE
5
184
100
AcDbEntity
8
Engraving
6
ByLayer
62
256
370
-1
100
AcDbCircle
10
141
20
9
40
1
0
CIRCLE
5
185
100
AcDbEntity
8
Engraving
6
ByLayer
62
256
370
-1
100
AcDbCircle
10
149
20
9
40
1
0
LINE
5
186
100
AcDbEntity
8
Engraving
6
ByLayer
62
256
370
-1
100
AcDbLine
10
141.9701425
20
8.75746437496
11
149
21
7
0
LINE
5
187
100
AcDbEntity
8
Engraving
6
ByLayer
62
256
370
-1
100
AcDbLine
10
161
20
35
11
170
21
35
0
INSERT
5
188
100
AcDbEntity
8
Engraving
6
ByLayer
62
256
370
-1
100
AcDbBlockReference
2
Ground-2
10
46
20
45
30
0
41
1
42
1
43
0
50
0
70
1
71
1
44
0
45
0
0
LINE
5
189
100
AcDbEntity
8
Engraving
6
ByLayer
62
256
370
-1
100
AcDbLine
10
161
20
55
11
165
21
55
0
LINE
5
18A
100
AcDbEntity
8
Engraving
6
ByLayer
62
256
370
-1
100
AcDbLine
10
170
20
63
11
170
21
70
0
LINE
5
18B
100
AcDbEntity
8
Engraving
6
ByLayer
62
256
370
-1
100
AcDbLine
10
161
20
70
11
170
21
70
0
LINE
5
18C
100
AcDbEntity
8
Engraving
6
ByLayer
62
256
370
-1
100
AcDbLine
10
170
20
47
11
170
21
35
0
ARC
5
18D
100
AcDbEntity
8
SwitchOption_Engraving
6
ByLayer
62
256
370
-1
100
AcDbCircle
10
155.555555556
20
200.555555556
40
0.555555555556
100
AcDbArc
50
180
51
0
0
LINE
5
18E
100
AcDbEntity
8
SwitchOption_Engraving
6
ByLayer
62
256
370
-1
100
AcDbLine
10
155
20
200.555555556
11
155
21
201.444444444
0
ARC
5
18F
100
AcDbEntity
8
SwitchOption_Engraving
6
ByLayer
62
256
370
-1
100
AcDbCircle
10
155.555555556
20
201.444444444
40
0.555555555556
100
AcDbArc
50
0
51
180
0
LINE
5
190
100
AcDbEntity
8
SwitchOption_Engraving
6
ByLayer
62
256
370
-1
100
AcDbLine
10
156.111111111
20
201.444444444
11
156.111111111
21
200.555555556
0
LINE
5
191
100
AcDbEntity
8
SwitchOption_Engraving
6
ByLayer
62
256
370
-1
100
AcDbLine
10
156.777777778
20
202
11
156.777777778
21
200.555555556
0
ARC
5
192
100
AcDbEntity
8
SwitchOption_Engraving
6
ByLayer
62
256
370
-1
100
AcDbCircle
10
157.333333333
20
200.555555556
40
0.555555555556
100
AcDbArc
50
180
51
0
0
LINE
5
193
100
AcDbEntity
8
SwitchOption_Engraving
6
ByLayer
62
256
370
-1
100
AcDbLine
10
157.888888889
20
200.555555556
11
157.888888889
21
202
0
LINE
5
194
100
AcDbEntity
8
SwitchOption_Engraving
6
ByLayer
62
256
370
-1
100
AcDbLine
10
158.555555556
20
202
11
159.666666667
21
202
0
LINE
5
195
100
AcDbEntity
8
SwitchOption_Engraving
6
ByLayer
62
256
370
-1
100
AcDbLine
10
159.111111111
20
202
11
159.111111111
21
200
0
LINE
5
196
100
AcDbEntity
8
SwitchOption_Engraving
6
ByLayer
62
256
370
-1
100
AcDbLine
10
160.333333333
20
200
11
160.333333333
21
202
0
LINE
5
197
100
AcDbEntity
8
SwitchOption_Engraving
6
ByLayer
62
256
370
-1
100
AcDbLine
10
160.333333333
20
202
11
160.888888889
21
202
0
ARC
5
198
100
AcDbEntity
8
SwitchOption_Engraving
6
ByLayer
62
256
370
-1
100
AcDbCircle
10
160.888888889
20
201.444444444
40
0.555555555556
100
AcDbArc
50
270
51
90
0
LINE
5
199
100
AcDbEntity
8
SwitchOption_Engraving
6
ByLayer
62
256
370
-1
100
AcDbLine
10
160.888888889
20
200.888888889
11
160.333333333
21
200.888888889
0
LINE
5
19A
100
AcDbEntity
8
SwitchOption_Engraving
6
ByLayer
62
256
370
-1
100
AcDbLine
10
162.111111111
20
202
11
162.111111111
21
200.555555556
0
ARC
5
19B
100
AcDbEntity
8
SwitchOption_Engraving
6
ByLayer
62
256
370
-1
100
AcDbCircle
10
162.666666667
20
200.555555556
40
0.555555555556
100
AcDbArc
50
180
51
0
0
LINE
5
19C
100
AcDbEntity
8
SwitchOption_Engraving
6
ByLayer
62
256
370
-1
100
AcDbLine
10
163.222222222
20
200.555555556
11
163.222222222
21
202
0
LINE
5
19D
100
AcDbEntity
8
SwitchOption_Engraving
6
ByLayer
62
256
370
-1
100
AcDbLine
10
163.888888889
20
202
11
165
21
202
0
LINE
5
19E
100
AcDbEntity
8
SwitchOption_Engraving
6
ByLayer
62
256
370
-1
100
AcDbLine
10
164.444444444
20
202
11
164.444444444
21
200
0
ARC
5
19F
100
AcDbEntity
8
SwitchOption_Engraving
6
ByLayer
62
256
370
-1
100
AcDbCircle
10
129.111111111
20
200.555555556
40
0.555555555556
100
AcDbArc
50
180
51
0
0
LINE
5
1A0
100
AcDbEntity
8
SwitchOption_Engraving
6
ByLayer
62
256
370
-1
100
AcDbLine
10
128.555555556
20
200.555555556
11
128.555555556
21
201.444444444
0
ARC
5
1A1
100
AcDbEntity
8
SwitchOption_Engraving
6
ByLayer
62
256
370
-1
100
AcDbCircle
10
129.111111111
20
201.444444444
40
0.555555555556
100
AcDbArc
50
0
51
180
0
LINE
5
1A2
100
AcDbEntity
8
SwitchOption_Engraving
6
ByLayer
62
256
370
-1
100
AcDbLine
10
129.666666667
20
201.444444444
11
129.666666667
21
200.555555556
0
LINE
5
1A3
100
AcDbEntity
8
SwitchOption_Engraving
6
ByLayer
62
256
370
-1
100
AcDbLine
10
130.333333333
20
200
11
130.333333333
21
202
0
LINE
5
1A4
100
AcDbEntity
8
SwitchOption_Engraving
6
ByLayer
62
256
370
-1
100
AcDbLine
10
130.333333333
20
202
11
131.444444444
21
200
0
LINE
5
1A5
100
AcDbEntity
8
SwitchOption_Engraving
6
ByLayer
62
256
370
-1
100
AcDbLine
10
131.444444444
20
200
11
131.444444444
21
202
0
LINE
5
1A6
100
AcDbEntity
8
Engraving
6
ByLayer
62
256
370
-1
100
AcDbLine
10
90
20
192.777777778
11
92.2222222222
21
195
0
LINE
5
1A7
100
AcDbEntity
8
Engraving
6
ByLayer
62
256
370
-1
100
AcDbLine
10
92.2222222222
20
195
11
92.2222222222
21
185
0
LINE
5
1A8
100
AcDbEntity
8
Engraving
6
ByLayer
62
256
370
-1
100
AcDbLine
10
95.5555555556
20
193.333333333
11
95.8532777778
21
193.888888889
0
ARC
5
1A9
100
AcDbEntity
8
Engraving
6
ByLayer
62
256
370
-1
100
AcDbCircle
10
97.7777777778
20
192.777777778
40
2.22222144514
100
AcDbArc
50
329.999988432
51
149.999988432
0
LINE
5
1AA
100
AcDbEntity
8
Engraving
6
ByLayer
62
256
370
-1
100
AcDbLine
10
99.7022777778
20
191.666666667
11
95.5555555556
21
185
0
LINE
5
1AB
100
AcDbEntity
8
Engraving
6
ByLayer
62
256
370
-1
100
AcDbLine
10
95.5555555556
20
185
11
100
21
185
0
LINE
5
1AC
100
AcDbEntity
8
Engraving
6
ByLayer
62
256
370
-1
100
AcDbLine
10
103.333333333
20
195
11
106.666666667
21
185
0
LINE
5
1AD
100
AcDbEntity
8
Engraving
6
ByLayer
62
256
370
-1
100
AcDbLine
10
106.666666667
20
185
11
110
21
195
0
LINE
5
1AE
100
AcDbEntity
8
Engraving
6
ByLayer
62
256
370
-1
100
AcDbLine
10
100
20
170
11
95.5555555556
21
170
0
LINE
5
1AF
100
AcDbEntity
8
Engraving
6
ByLayer
62
256
370
-1
100
AcDbLine
10
95.5555555556
20
170
11
95.5555555556
21
165.555555556
0
LINE
5
1B0
100
AcDbEntity
8
Engraving
6
ByLayer
62
256
370
-1
100
AcDbLine
10
95.5555555556
20
165.555555556
11
97.7777777778
21
165.555555556
0
ARC
5
1B1
100
AcDbEntity
8
Engraving
6
ByLayer
62
256
370
-1
100
AcDbCircle
10
97.7777794379
20
163.333334994
40
2.22222056206
100
AcDbArc
50
359.999957196
51
90.0000428043
0
LINE
5
1B2
100
AcDbEntity
8
Engraving
6
ByLayer
62
256
370
-1
100
AcDbLine
10
100
20
163.333333333
11
100
21
162.222222222
0
ARC
5
1B3
100
AcDbEntity
8
Engraving
6
ByLayer
62
256
370
-1
100
AcDbCircle
10
97.7777794379
20
162.222220562
40
2.22222056206
100
AcDbArc
50
269.999957196
51
4.28042869712e-005
0
LINE
5
1B4
100
AcDbEntity
8
Engraving
6
ByLayer
62
256
370
-1
100
AcDbLine
10
97.7777777778
20
160
11
95.5555555556
21
160
0
LINE
5
1B5
100
AcDbEntity
8
Engraving
6
ByLayer
62
256
370
-1
100
AcDbLine
10
103.333333333
20
170
11
106.666666667
21
160
0
LINE
5
1B6
100
AcDbEntity
8
Engraving
6
ByLayer
62
256
370
-1
100
AcDbLine
10
106.666666667
20
160
11
110
21
170
0
LINE
5
1B7
100
AcDbEntity
8
Engraving
6
ByLayer
62
256
370
-1
100
AcDbLine
10
84.4444444444
20
145
11
86.6666666667
21
145
0
ARC
5
1B8
100
AcDbEntity
8
Engraving
6
ByLayer
62
256
370
-1
100
AcDbCircle
10
86.6666666667
20
142.777777778
40
2.22222222222
100
AcDbArc
50
270
51
90
0
LINE
5
1B9
100
AcDbEntity
8
Engraving
6
ByLayer
62
256
370
-1
100
AcDbLine
10
85.5555555556
20
140.555555556
11
86.6666666667
21
140.555555556
0
ARC
5
1BA
100
AcDbEntity
8
Engraving
6
ByLayer
62
256
370
-1
100
AcDbCircle
10
86.6666683268
20
138.333334994
40
2.22222056206
100
AcDbArc
50
359.999957196
51
90.0000428043
0
LINE
5
1BB
100
AcDbEntity
8
Engraving
6
ByLayer
62
256
370
-1
100
AcDbLine
10
88.8888888889
20
138.333333333
11
88.8888888889
21
137.222222222
0
ARC
5
1BC
100
AcDbEntity
8
Engraving
6
ByLayer
62
256
370
-1
100
AcDbCircle
10
86.6666683268
20
137.222220562
40
2.22222056206
100
AcDbArc
50
269.999957196
51
4.28042869712e-005
0
LINE
5
1BD
100
AcDbEntity
8
Engraving
6
ByLayer
62
256
370
-1
100
AcDbLine
10
86.6666666667
20
135
11
84.4444444444
21
135
0
LINE
5
1BE
100
AcDbEntity
8
Engraving
6
ByLayer
62
256
370
-1
100
AcDbLine
10
92.2222222222
20
135
11
92.2222222222
21
135.555555556
0
LINE
5
1BF
100
AcDbEntity
8
Engraving
6
ByLayer
62
256
370
-1
100
AcDbLine
10
95.5555555556
20
145
11
97.7777777778
21
145
0
ARC
5
1C0
100
AcDbEntity
8
Engraving
6
ByLayer
62
256
370
-1
100
AcDbCircle
10
97.7777777778
20
142.777777778
40
2.22222222222
100
AcDbArc
50
270
51
90
0
LINE
5
1C1
100
AcDbEntity
8
Engraving
6
ByLayer
62
256
370
-1
100
AcDbLine
10
96.6666666667
20
140.555555556
11
97.7777777778
21
140.555555556
0
ARC
5
1C2
100
AcDbEntity
8
Engraving
6
ByLayer
62
256
370
-1
100
AcDbCircle
10
97.7777794379
20
138.333334994
40
2.22222056206
100
AcDbArc
50
359.999957196
51
90.0000428043
0
LINE
5
1C3
100
AcDbEntity
8
Engraving
6
ByLayer
62
256
370
-1
100
AcDbLine
10
100
20
138.333333333
11
100
21
137.222222222
0
ARC
5
1C4
100
AcDbEntity
8
Engraving
6
ByLayer
62
256
370
-1
100
AcDbCircle
10
97.7777794379
20
137.222220562
40
2.22222056206
100
AcDbArc
50
269.999957196
51
4.28042869712e-005
0
LINE
5
1C5
100
AcDbEntity
8
Engraving
6
ByLayer
62
256
370
-1
100
AcDbLine
10
97.7777777778
20
135
11
95.5555555556
21
135
0
LINE
5
1C6
100
AcDbEntity
8
Engraving
6
ByLayer
62
256
370
-1
100
AcDbLine
10
103.333333333
20
145
11
106.666666667
21
135
0
LINE
5
1C7
100
AcDbEntity
8
Engraving
6
ByLayer
62
256
370
-1
100
AcDbLine
10
106.666666667
20
135
11
110
21
145
0
LINE
5
1C8
100
AcDbEntity
8
Engraving
6
ByLayer
62
256
370
-1
100
AcDbLine
10
87.7777777778
20
113.333333333
11
92.2222222222
21
113.333333333
0
LINE
5
1C9
100
AcDbEntity
8
Engraving
6
ByLayer
62
256
370
-1
100
AcDbLine
10
100
20
120
11
95.5555555556
21
120
0
LINE
5
1CA
100
AcDbEntity
8
Engraving
6
ByLayer
62
256
370
-1
100
AcDbLine
10
95.5555555556
20
120
11
95.5555555556
21
115.555555556
0
LINE
5
1CB
100
AcDbEntity
8
Engraving
6
ByLayer
62
256
370
-1
100
AcDbLine
10
95.5555555556
20
115.555555556
11
97.7777777778
21
115.555555556
0
ARC
5
1CC
100
AcDbEntity
8
Engraving
6
ByLayer
62
256
370
-1
100
AcDbCircle
10
97.7777794379
20
113.333334994
40
2.22222056206
100
AcDbArc
50
359.999957196
51
90.0000428043
0
LINE
5
1CD
100
AcDbEntity
8
Engraving
6
ByLayer
62
256
370
-1
100
AcDbLine
10
100
20
113.333333333
11
100
21
112.222222222
0
ARC
5
1CE
100
AcDbEntity
8
Engraving
6
ByLayer
62
256
370
-1
100
AcDbCircle
10
97.7777794379
20
112.222220562
40
2.22222056206
100
AcDbArc
50
269.999957196
51
4.28042869712e-005
0
LINE
5
1CF
100
AcDbEntity
8
Engraving
6
ByLayer
62
256
370
-1
100
AcDbLine
10
97.7777777778
20
110
11
95.5555555556
21
110
0
LINE
5
1D0
100
AcDbEntity
8
Engraving
6
ByLayer
62
256
370
-1
100
AcDbLine
10
103.333333333
20
120
11
106.666666667
21
110
0
LINE
5
1D1
100
AcDbEntity
8
Engraving
6
ByLayer
62
256
370
-1
100
AcDbLine
10
106.666666667
20
110
11
110
21
120
0
LINE
5
1D2
100
AcDbEntity
8
Engraving
6
ByLayer
62
256
370
-1
100
AcDbLine
10
82.2222222222
20
88.3333333333
11
86.6666666667
21
88.3333333333
0
LINE
5
1D3
100
AcDbEntity
8
Engraving
6
ByLayer
62
256
370
-1
100
AcDbLine
10
90
20
92.7777777778
11
92.2222222222
21
95
0
LINE
5
1D4
100
AcDbEntity
8
Engraving
6
ByLayer
62
256
370
-1
100
AcDbLine
10
92.2222222222
20
95
11
92.2222222222
21
85
0
LINE
5
1D5
100
AcDbEntity
8
Engraving
6
ByLayer
62
256
370
-1
100
AcDbLine
10
95.5555555556
20
93.3333333333
11
95.8532777778
21
93.8888888889
0
ARC
5
1D6
100
AcDbEntity
8
Engraving
6
ByLayer
62
256
370
-1
100
AcDbCircle
10
97.7777777778
20
92.7777777778
40
2.22222144514
100
AcDbArc
50
329.999988432
51
149.999988432
0
LINE
5
1D7
100
AcDbEntity
8
Engraving
6
ByLayer
62
256
370
-1
100
AcDbLine
10
99.7022777778
20
91.6666666667
11
95.5555555556
21
85
0
LINE
5
1D8
100
AcDbEntity
8
Engraving
6
ByLayer
62
256
370
-1
100
AcDbLine
10
95.5555555556
20
85
11
100
21
85
0
LINE
5
1D9
100
AcDbEntity
8
Engraving
6
ByLayer
62
256
370
-1
100
AcDbLine
10
103.333333333
20
95
11
106.666666667
21
85
0
LINE
5
1DA
100
AcDbEntity
8
Engraving
6
ByLayer
62
256
370
-1
100
AcDbLine
10
106.666666667
20
85
11
110
21
95
0
LINE
5
1DB
100
AcDbEntity
8
Engraving
6
ByLayer
62
256
370
-1
100
AcDbLine
10
63.4444444444
20
11
11
62.5555555556
21
11
0
LINE
5
1DC
100
AcDbEntity
8
Engraving
6
ByLayer
62
256
370
-1
100
AcDbLine
10
62.5555555556
20
11
11
62.5555555556
21
10.1111111111
0
LINE
5
1DD
100
AcDbEntity
8
Engraving
6
ByLayer
62
256
370
-1
100
AcDbLine
10
62.5555555556
20
10.1111111111
11
63
21
10.1111111111
0
ARC
5
1DE
100
AcDbEntity
8
Engraving
6
ByLayer
62
256
370
-1
100
AcDbCircle
10
63.000000332
20
9.6666669987
40
0.444444112411
100
AcDbArc
50
359.999957196
51
90.0000428043
0
LINE
5
1DF
100
AcDbEntity
8
Engraving
6
ByLayer
62
256
370
-1
100
AcDbLine
10
63.4444444444
20
9.66666666667
11
63.4444444444
21
9.44444444444
0
ARC
5
1E0
100
AcDbEntity
8
Engraving
6
ByLayer
62
256
370
-1
100
AcDbCircle
10
63.000000332
20
9.44444411241
40
0.444444112411
100
AcDbArc
50
269.999957196
51
4.28042869712e-005
0
LINE
5
1E1
100
AcDbEntity
8
Engraving
6
ByLayer
62
256
370
-1
100
AcDbLine
10
63
20
9
11
62.5555555556
21
9
0
LINE
5
1E2
100
AcDbEntity
8
Engraving
6
ByLayer
62
256
370
-1
100
AcDbLine
10
64.1111111111
20
11
11
64.7777777778
21
9
0
LINE
5
1E3
100
AcDbEntity
8
Engraving
6
ByLayer
62
256
370
-1
100
AcDbLine
10
64.7777777778
20
9
11
65.4444444444
21
11
0
ARC
5
1E4
100
AcDbEntity
8
Engraving
6
ByLayer
62
256
370
-1
100
AcDbCircle
10
41.6666666667
20
33.6666666667
40
1.66666666667
100
AcDbArc
50
180
51
0
0
LINE
5
1E5
100
AcDbEntity
8
Engraving
6
ByLayer
62
256
370
-1
100
AcDbLine
10
40
20
33.6666666667
11
40
21
36.3333333333
0
ARC
5
1E6
100
AcDbEntity
8
Engraving
6
ByLayer
62
256
370
-1
100
AcDbCircle
10
41.6666666667
20
36.3333333333
40
1.66666666667
100
AcDbArc
50
0
51
180
0
LINE
5
1E7
100
AcDbEntity
8
Engraving
6
ByLayer
62
256
370
-1
100
AcDbLine
10
43.3333333333
20
36.3333333333
11
43.3333333333
21
33.6666666667
0
LINE
5
1E8
100
AcDbEntity
8
Engraving
6
ByLayer
62
256
370
-1
100
AcDbLine
10
45.3333333333
20
38
11
45.3333333333
21
33.6666666667
0
ARC
5
1E9
100
AcDbEntity
8
Engraving
6
ByLayer
62
256
370
-1
100
AcDbCircle
10
47
20
33.6666666667
40
1.66666666667
100
AcDbArc
50
180
51
0
0
LINE
5
1EA
100
AcDbEntity
8
Engraving
6
ByLayer
62
256
370
-1
100
AcDbLine
10
48.6666666667
20
33.6666666667
11
48.6666666667
21
38
0
LINE
5
1EB
100
AcDbEntity
8
Engraving
6
ByLayer
62
256
370
-1
100
AcDbLine
10
50.6666666667
20
38
11
54
21
38
0
LINE
5
1EC
100
AcDbEntity
8
Engraving
6
ByLayer
62
256
370
-1
100
AcDbLine
10
52.3333333333
20
38
11
52.3333333333
21
32
0
LINE
5
1ED
100
AcDbEntity
8
Engraving
6
ByLayer
62
256
370
-1
100
AcDbLine
10
56
20
32
11
56
21
38
0
LINE
5
1EE
100
AcDbEntity
8
Engraving
6
ByLayer
62
256
370
-1
100
AcDbLine
10
56
20
38
11
57.6666666667
21
38
0
ARC
5
1EF
100
AcDbEntity
8
Engraving
6
ByLayer
62
256
370
-1
100
AcDbCircle
10
57.6666666667
20
36.3333333333
40
1.66666666667
100
AcDbArc
50
270
51
90
0
LINE
5
1F0
100
AcDbEntity
8
Engraving
6
ByLayer
62
256
370
-1
100
AcDbLine
10
57.6666666667
20
34.6666666667
11
56
21
34.6666666667
0
LINE
5
1F1
100
AcDbEntity
8
Engraving
6
ByLayer
62
256
370
-1
100
AcDbLine
10
61.3333333333
20
38
11
61.3333333333
21
33.6666666667
0
ARC
5
1F2
100
AcDbEntity
8
Engraving
6
ByLayer
62
256
370
-1
100
AcDbCircle
10
63
20
33.6666666667
40
1.66666666667
100
AcDbArc
50
180
51
0
0
LINE
5
1F3
100
AcDbEntity
8
Engraving
6
ByLayer
62
256
370
-1
100
AcDbLine
10
64.6666666667
20
33.6666666667
11
64.6666666667
21
38
0
LINE
5
1F4
100
AcDbEntity
8
Engraving
6
ByLayer
62
256
370
-1
100
AcDbLine
10
66.6666666667
20
38
11
70
21
38
0
LINE
5
1F5
100
AcDbEntity
8
Engraving
6
ByLayer
62
256
370
-1
100
AcDbLine
10
68.3333333333
20
38
11
68.3333333333
21
32
0
ARC
5
1F6
100
AcDbEntity
8
Engraving
6
ByLayer
62
256
370
-1
100
AcDbCircle
10
78.1666666667
20
33.6666666667
40
1.66666666667
100
AcDbArc
50
180
51
0
0
LINE
5
1F7
100
AcDbEntity
8
Engraving
6
ByLayer
62
256
370
-1
100
AcDbLine
10
76.5
20
33.6666666667
11
76.5
21
36.3333333333
0
ARC
5
1F8
100
AcDbEntity
8
Engraving
6
ByLayer
62
256
370
-1
100
AcDbCircle
10
78.1666666667
20
36.3333333333
40
1.66666666667
100
AcDbArc
50
0
51
180
0
LINE
5
1F9
100
AcDbEntity
8
Engraving
6
ByLayer
62
256
370
-1
100
AcDbLine
10
79.8333333333
20
36.3333333333
11
79.8333333333
21
33.6666666667
0
LINE
5
1FA
100
AcDbEntity
8
Engraving
6
ByLayer
62
256
370
-1
100
AcDbLine
10
81.8333333333
20
32
11
81.8333333333
21
38
0
LINE
5
1FB
100
AcDbEntity
8
Engraving
6
ByLayer
62
256
370
-1
100
AcDbLine
10
81.8333333333
20
38
11
85.1666666667
21
32
0
LINE
5
1FC
100
AcDbEntity
8
Engraving
6
ByLayer
62
256
370
-1
100
AcDbLine
10
85.1666666667
20
32
11
85.1666666667
21
38
0
ARC
5
1FD
100
AcDbEntity
8
Engraving
6
ByLayer
62
256
370
-1
100
AcDbCircle
10
102.08334375
20
35
40
10.4166764167
100
AcDbArc
50
159.390327231
51
200.609672769
0
LINE
5
1FE
100
AcDbEntity
8
Engraving
6
ByLayer
62
256
370
-1
100
AcDbLine
10
94.3333333333
20
32
11
94.3333333333
21
38
0
LINE
5
1FF
100
AcDbEntity
8
Engraving
6
ByLayer
62
256
370
-1
100
AcDbLine
10
94.3333333333
20
38
11
96
21
38
0
ARC
5
200
100
AcDbEntity
8
Engraving
6
ByLayer
62
256
370
-1
100
AcDbCircle
10
96
20
36.3333333333
40
1.66666666667
100
AcDbArc
50
270
51
90
0
LINE
5
201
100
AcDbEntity
8
Engraving
6
ByLayer
62
256
370
-1
100
AcDbLine
10
96
20
34.6666666667
11
94.3333333333
21
34.6666666667
0
LINE
5
202
100
AcDbEntity
8
Engraving
6
ByLayer
62
256
370
-1
100
AcDbLine
10
102
20
35.3333333333
11
103
21
35.3333333333
0
LINE
5
203
100
AcDbEntity
8
Engraving
6
ByLayer
62
256
370
-1
100
AcDbLine
10
103
20
35.3333333333
11
103
21
32
0
LINE
5
204
100
AcDbEntity
8
Engraving
6
ByLayer
62
256
370
-1
100
AcDbLine
10
103
20
32
11
101
21
32
0
ARC
5
205
100
AcDbEntity
8
Engraving
6
ByLayer
62
256
370
-1
100
AcDbCircle
10
100.999999004
20
33.3333323372
40
1.33333233723
100
AcDbArc
50
179.999957196
51
270.000042804
0
LINE
5
206
100
AcDbEntity
8
Engraving
6
ByLayer
62
256
370
-1
100
AcDbLine
10
99.6666666667
20
33.3333333333
11
99.6666666667
21
36.6666666667
0
ARC
5
207
100
AcDbEntity
8
Engraving
6
ByLayer
62
256
370
-1
100
AcDbCircle
10
100.999999004
20
36.6666676628
40
1.33333233723
100
AcDbArc
50
89.9999571957
51
180.000042804
0
LINE
5
208
100
AcDbEntity
8
Engraving
6
ByLayer
62
256
370
-1
100
AcDbLine
10
101
20
38
11
103
21
38
0
ARC
5
209
100
AcDbEntity
8
Engraving
6
ByLayer
62
256
370
-1
100
AcDbCircle
10
95.2499895833
20
35
40
10.4166764167
100
AcDbArc
50
339.390327231
51
20.6096727694
0
LINE
5
20A
100
AcDbEntity
8
Engraving
6
ByLayer
62
256
370
-1
100
AcDbLine
10
130.666666667
20
32
11
130.666666667
21
38
0
LINE
5
20B
100
AcDbEntity
8
Engraving
6
ByLayer
62
256
370
-1
100
AcDbLine
10
130.666666667
20
38
11
132.333333333
21
38
0
ARC
5
20C
100
AcDbEntity
8
Engraving
6
ByLayer
62
256
370
-1
100
AcDbCircle
10
132.333333333
20
36.3333333333
40
1.66666666667
100
AcDbArc
50
270
51
90
0
LINE
5
20D
100
AcDbEntity
8
Engraving
6
ByLayer
62
256
370
-1
100
AcDbLine
10
132.333333333
20
34.6666666667
11
130.666666667
21
34.6666666667
0
LINE
5
20E
100
AcDbEntity
8
Engraving
6
ByLayer
62
256
370
-1
100
AcDbLine
10
134
20
32
11
132.652473333
21
34.6975066667
0
LINE
5
20F
100
AcDbEntity
8
Engraving
6
ByLayer
62
256
370
-1
100
AcDbLine
10
138.666666667
20
32
11
136
21
32
0
LINE
5
210
100
AcDbEntity
8
Engraving
6
ByLayer
62
256
370
-1
100
AcDbLine
10
136
20
32
11
136
21
38
0
LINE
5
211
100
AcDbEntity
8
Engraving
6
ByLayer
62
256
370
-1
100
AcDbLine
10
136
20
38
11
138.666666667
21
38
0
LINE
5
212
100
AcDbEntity
8
Engraving
6
ByLayer
62
256
370
-1
100
AcDbLine
10
136
20
35.3333333333
11
138
21
35.3333333333
0
LINE
5
213
100
AcDbEntity
8
Engraving
6
ByLayer
62
256
370
-1
100
AcDbLine
10
140.666666667
20
32
11
140.666666667
21
38
0
LINE
5
214
100
AcDbEntity
8
Engraving
6
ByLayer
62
256
370
-1
100
AcDbLine
10
140.666666667
20
38
11
142.666666667
21
34.6666666667
0
LINE
5
215
100
AcDbEntity
8
Engraving
6
ByLayer
62
256
370
-1
100
AcDbLine
10
142.666666667
20
34.6666666667
11
144.666666667
21
38
0
LINE
5
216
100
AcDbEntity
8
Engraving
6
ByLayer
62
256
370
-1
100
AcDbLine
10
144.666666667
20
38
11
144.666666667
21
32
0
ARC
5
217
100
AcDbEntity
8
Engraving
6
ByLayer
62
256
370
-1
100
AcDbCircle
10
148.333333333
20
33.6666666667
40
1.66666666667
100
AcDbArc
50
180
51
0
0
LINE
5
218
100
AcDbEntity
8
Engraving
6
ByLayer
62
256
370
-1
100
AcDbLine
10
146.666666667
20
33.6666666667
11
146.666666667
21
36.3333333333
0
ARC
5
219
100
AcDbEntity
8
Engraving
6
ByLayer
62
256
370
-1
100
AcDbCircle
10
148.333333333
20
36.3333333333
40
1.66666666667
100
AcDbArc
50
0
51
180
0
LINE
5
21A
100
AcDbEntity
8
Engraving
6
ByLayer
62
256
370
-1
100
AcDbLine
10
150
20
36.3333333333
11
150
21
33.6666666667
0
LINE
5
21B
100
AcDbEntity
8
Engraving
6
ByLayer
62
256
370
-1
100
AcDbLine
10
152
20
38
11
155.333333333
21
38
0
LINE
5
21C
100
AcDbEntity
8
Engraving
6
ByLayer
62
256
370
-1
100
AcDbLine
10
153.666666667
20
38
11
153.666666667
21
32
0
LINE
5
21D
100
AcDbEntity
8
Engraving
6
ByLayer
62
256
370
-1
100
AcDbLine
10
160
20
32
11
157.333333333
21
32
0
LINE
5
21E
100
AcDbEntity
8
Engraving
6
ByLayer
62
256
370
-1
100
AcDbLine
10
157.333333333
20
32
11
157.333333333
21
38
0
LINE
5
21F
100
AcDbEntity
8
Engraving
6
ByLayer
62
256
370
-1
100
AcDbLine
10
157.333333333
20
38
11
160
21
38
0
LINE
5
220
100
AcDbEntity
8
Engraving
6
ByLayer
62
256
370
-1
100
AcDbLine
10
157.333333333
20
35.3333333333
11
159.333333333
21
35.3333333333
0
LINE
5
221
100
AcDbEntity
8
Engraving
6
ByLayer
62
256
370
-1
100
AcDbLine
10
40
20
67
11
40
21
73
0
LINE
5
222
100
AcDbEntity
8
Engraving
6
ByLayer
62
256
370
-1
100
AcDbLine
10
40
20
73
11
42
21
69.6666666667
0
LINE
5
223
100
AcDbEntity
8
Engraving
6
ByLayer
62
256
370
-1
100
AcDbLine
10
42
20
69.6666666667
11
44
21
73
0
LINE
5
224
100
AcDbEntity
8
Engraving
6
ByLayer
62
256
370
-1
100
AcDbLine
10
44
20
73
11
44
21
67
0
LINE
5
225
100
AcDbEntity
8
Engraving
6
ByLayer
62
256
370
-1
100
AcDbLine
10
46.5555333333
20
68.6666666667
11
49.4444
21
68.6666666667
0
LINE
5
226
100
AcDbEntity
8
Engraving
6
ByLayer
62
256
370
-1
100
AcDbLine
10
46
20
67
11
48
21
73
0
LINE
5
227
100
AcDbEntity
8
Engraving
6
ByLayer
62
256
370
-1
100
AcDbLine
10
48
20
73
11
50
21
67
0
LINE
5
228
100
AcDbEntity
8
Engraving
6
ByLayer
62
256
370
-1
100
AcDbLine
10
52
20
67
11
52
21
73
0
LINE
5
229
100
AcDbEntity
8
Engraving
6
ByLayer
62
256
370
-1
100
AcDbLine
10
54
20
67
11
54
21
73
0
LINE
5
22A
100
AcDbEntity
8
Engraving
6
ByLayer
62
256
370
-1
100
AcDbLine
10
54
20
73
11
57.3333333333
21
67
0
LINE
5
22B
100
AcDbEntity
8
Engraving
6
ByLayer
62
256
370
-1
100
AcDbLine
10
57.3333333333
20
67
11
57.3333333333
21
73
0
ARC
5
22C
100
AcDbEntity
8
Engraving
6
ByLayer
62
256
370
-1
100
AcDbCircle
10
61.3333311259
20
70.3333267111
40
3.33332671111
100
AcDbArc
50
233.130064412
51
270.000037943
0
ARC
5
22D
100
AcDbEntity
8
Engraving
6
ByLayer
62
256
370
-1
100
AcDbCircle
10
61.3333328228
20
68.3333325718
40
1.33333257181
100
AcDbArc
50
270.000021937
51
62.9810193843
0
LINE
5
22E
100
AcDbEntity
8
Engraving
6
ByLayer
62
256
370
-1
100
AcDbLine
10
61.9390466667
20
69.52114
11
60.0609533333
21
70.47886
0
ARC
5
22F
100
AcDbEntity
8
Engraving
6
ByLayer
62
256
370
-1
100
AcDbCircle
10
60.6666671772
20
71.6666674282
40
1.33333257181
100
AcDbArc
50
90.0000219368
51
242.981019384
0
ARC
5
230
100
AcDbEntity
8
Engraving
6
ByLayer
62
256
370
-1
100
AcDbCircle
10
60.66666655
20
68.6666660834
40
4.33333391663
100
AcDbArc
50
67.3801365945
51
89.9999984575
0
ARC
5
231
100
AcDbEntity
8
Engraving
6
ByLayer
62
256
370
-1
100
AcDbCircle
10
70.8333320613
20
68.6666666667
40
1.66666666667
100
AcDbArc
50
180
51
0
0
LINE
5
232
100
AcDbEntity
8
Engraving
6
ByLayer
62
256
370
-1
100
AcDbLine
10
69.1666653947
20
68.6666666667
11
69.1666653947
21
71.3333333333
0
ARC
5
233
100
AcDbEntity
8
Engraving
6
ByLayer
62
256
370
-1
100
AcDbCircle
10
70.8333320613
20
71.3333333333
40
1.66666666667
100
AcDbArc
50
0
51
180
0
LINE
5
234
100
AcDbEntity
8
Engraving
6
ByLayer
62
256
370
-1
100
AcDbLine
10
72.499998728
20
71.3333333333
11
72.499998728
21
68.6666666667
0
LINE
5
235
100
AcDbEntity
8
Engraving
6
ByLayer
62
256
370
-1
100
AcDbLine
10
74.499998728
20
67
11
74.499998728
21
73
0
LINE
5
236
100
AcDbEntity
8
Engraving
6
ByLayer
62
256
370
-1
100
AcDbLine
10
74.499998728
20
73
11
77.8333320613
21
67
0
LINE
5
237
100
AcDbEntity
8
Engraving
6
ByLayer
62
256
370
-1
100
AcDbLine
10
77.8333320613
20
67
11
77.8333320613
21
73
0
ARC
5
238
100
AcDbEntity
8
Engraving
6
ByLayer
62
256
370
-1
100
AcDbCircle
10
94.7500091447
20
70
40
10.4166764167
100
AcDbArc
50
159.390327231
51
200.609672769
0
ARC
5
239
100
AcDbEntity
8
Engraving
6
ByLayer
62
256
370
-1
100
AcDbCircle
10
88.9999965206
20
70.3333267111
40
3.33332671111
100
AcDbArc
50
233.130064412
51
270.000037943
0
ARC
5
23A
100
AcDbEntity
8
Engraving
6
ByLayer
62
256
370
-1
100
AcDbCircle
10
88.9999982175
20
68.3333325718
40
1.33333257181
100
AcDbArc
50
270.000021937
51
62.9810193843
0
LINE
5
23B
100
AcDbEntity
8
Engraving
6
ByLayer
62
256
370
-1
100
AcDbLine
10
89.6057120613
20
69.52114
11
87.727618728
21
70.47886
0
ARC
5
23C
100
AcDbEntity
8
Engraving
6
ByLayer
62
256
370
-1
100
AcDbCircle
10
88.3333325718
20
71.6666674282
40
1.33333257181
100
AcDbArc
50
90.0000219368
51
242.981019384
0
ARC
5
23D
100
AcDbEntity
8
Engraving
6
ByLayer
62
256
370
-1
100
AcDbCircle
10
88.3333319447
20
68.6666660834
40
4.33333391663
100
AcDbArc
50
67.3801365945
51
89.9999984575
0
LINE
5
23E
100
AcDbEntity
8
Engraving
6
ByLayer
62
256
370
-1
100
AcDbLine
10
93.999997456
20
70.3333333333
11
92.3333307893
21
70.3333333333
0
ARC
5
23F
100
AcDbEntity
8
Engraving
6
ByLayer
62
256
370
-1
100
AcDbCircle
10
93.999997456
20
71.6666666667
40
1.33333333333
100
AcDbArc
50
270
51
90
0
LINE
5
240
100
AcDbEntity
8
Engraving
6
ByLayer
62
256
370
-1
100
AcDbLine
10
93.999997456
20
73
11
92.3333307893
21
73
0
LINE
5
241
100
AcDbEntity
8
Engraving
6
ByLayer
62
256
370
-1
100
AcDbLine
10
92.3333307893
20
73
11
92.3333307893
21
67
0
LINE
5
242
100
AcDbEntity
8
Engraving
6
ByLayer
62
256
370
-1
100
AcDbLine
10
92.3333307893
20
67
11
93.999997456
21
67
0
ARC
5
243
100
AcDbEntity
8
Engraving
6
ByLayer
62
256
370
-1
100
AcDbCircle
10
93.999997456
20
68.6666666667
40
1.66666666667
100
AcDbArc
50
270
51
90
0
ARC
5
244
100
AcDbEntity
8
Engraving
6
ByLayer
62
256
370
-1
100
AcDbCircle
10
87.916653706
20
70
40
10.4166764167
100
AcDbArc
50
339.390327231
51
20.6096727694
0
LINE
5
245
100
AcDbEntity
8
Engraving
6
ByLayer
62
256
370
-1
100
AcDbLine
10
63.4444444444
20
46
11
62.5555555556
21
46
0
LINE
5
246
100
AcDbEntity
8
Engraving
6
ByLayer
62
256
370
-1
100
AcDbLine
10
62.5555555556
20
46
11
62.5555555556
21
45.1111111111
0
LINE
5
247
100
AcDbEntity
8
Engraving
6
ByLayer
62
256
370
-1
100
AcDbLine
10
62.5555555556
20
45.1111111111
11
63
21
45.1111111111
0
ARC
5
248
100
AcDbEntity
8
Engraving
6
ByLayer
62
256
370
-1
100
AcDbCircle
10
63.000000332
20
44.6666669987
40
0.444444112411
100
AcDbArc
50
359.999957196
51
90.0000428043
0
LINE
5
249
100
AcDbEntity
8
Engraving
6
ByLayer
62
256
370
-1
100
AcDbLine
10
63.4444444444
20
44.6666666667
11
63.4444444444
21
44.4444444444
0
ARC
5
24A
100
AcDbEntity
8
Engraving
6
ByLayer
62
256
370
-1
100
AcDbCircle
10
63.000000332
20
44.4444441124
40
0.444444112411
100
AcDbArc
50
269.999957196
51
4.28042869712e-005
0
LINE
5
24B
100
AcDbEntity
8
Engraving
6
ByLayer
62
256
370
-1
100
AcDbLine
10
63
20
44
11
62.5555555556
21
44
0
LINE
5
24C
100
AcDbEntity
8
Engraving
6
ByLayer
62
256
370
-1
100
AcDbLine
10
64.1111111111
20
46
11
64.7777777778
21
44
0
LINE
5
24D
100
AcDbEntity
8
Engraving
6
ByLayer
62
256
370
-1
100
AcDbLine
10
64.7777777778
20
44
11
65.4444444444
21
46
0
ARC
5
24E
100
AcDbEntity
8
Engraving
6
ByLayer
62
256
370
-1
100
AcDbCircle
10
149
20
53.6666666667
40
1.66666666667
100
AcDbArc
50
180
51
0
0
LINE
5
24F
100
AcDbEntity
8
Engraving
6
ByLayer
62
256
370
-1
100
AcDbLine
10
147.333333333
20
53.6666666667
11
147.333333333
21
56.3333333333
0
ARC
5
250
100
AcDbEntity
8
Engraving
6
ByLayer
62
256
370
-1
100
AcDbCircle
10
149
20
56.3333333333
40
1.66666666667
100
AcDbArc
50
0
51
180
0
LINE
5
251
100
AcDbEntity
8
Engraving
6
ByLayer
62
256
370
-1
100
AcDbLine
10
150.666666667
20
56.3333333333
11
150.666666667
21
53.6666666667
0
LINE
5
252
100
AcDbEntity
8
Engraving
6
ByLayer
62
256
370
-1
100
AcDbLine
10
152.666666667
20
52
11
152.666666667
21
58
0
LINE
5
253
100
AcDbEntity
8
Engraving
6
ByLayer
62
256
370
-1
100
AcDbLine
10
152.666666667
20
58
11
155.333333333
21
58
0
LINE
5
254
100
AcDbEntity
8
Engraving
6
ByLayer
62
256
370
-1
100
AcDbLine
10
152.666666667
20
55.3333333333
11
155.333333333
21
55.3333333333
0
LINE
5
255
100
AcDbEntity
8
Engraving
6
ByLayer
62
256
370
-1
100
AcDbLine
10
157.333333333
20
52
11
157.333333333
21
58
0
LINE
5
256
100
AcDbEntity
8
Engraving
6
ByLayer
62
256
370
-1
100
AcDbLine
10
157.333333333
20
58
11
160
21
58
0
LINE
5
257
100
AcDbEntity
8
Engraving
6
ByLayer
62
256
370
-1
100
AcDbLine
10
157.333333333
20
55.3333333333
11
160
21
55.3333333333
0
ARC
5
258
100
AcDbEntity
8
Engraving
6
ByLayer
62
256
370
-1
100
AcDbCircle
10
153
20
68.6666666667
40
1.66666666667
100
AcDbArc
50
180
51
0
0
LINE
5
259
100
AcDbEntity
8
Engraving
6
ByLayer
62
256
370
-1
100
AcDbLine
10
151.333333333
20
68.6666666667
11
151.333333333
21
71.3333333333
0
ARC
5
25A
100
AcDbEntity
8
Engraving
6
ByLayer
62
256
370
-1
100
AcDbCircle
10
153
20
71.3333333333
40
1.66666666667
100
AcDbArc
50
0
51
180
0
LINE
5
25B
100
AcDbEntity
8
Engraving
6
ByLayer
62
256
370
-1
100
AcDbLine
10
154.666666667
20
71.3333333333
11
154.666666667
21
68.6666666667
0
LINE
5
25C
100
AcDbEntity
8
Engraving
6
ByLayer
62
256
370
-1
100
AcDbLine
10
156.666666667
20
67
11
156.666666667
21
73
0
LINE
5
25D
100
AcDbEntity
8
Engraving
6
ByLayer
62
256
370
-1
100
AcDbLine
10
156.666666667
20
73
11
160
21
67
0
LINE
5
25E
100
AcDbEntity
8
Engraving
6
ByLayer
62
256
370
-1
100
AcDbLine
10
160
20
67
11
160
21
73
0
ENDSEC
0
SECTION
2
OBJECTS
0
DICTIONARY
5
C
330
0
100
AcDbDictionary
281
1
3
ACAD_GROUP
350
D
0
DICTIONARY
5
D
330
C
100
AcDbDictionary
281
1
0
ENDSEC
0
EOF
