999
dxfrw 0.5.10
0
SECTION
2
HEADER
9
$ACADVER
1
AC1021
9
$HANDSEED
5
20000
9
$DWGCODEPAGE
3
ANSI_1252
9
$INSBASE
10
0
20
0
30
0
9
$EXTMIN
10
7
20
0
30
0
9
$EXTMAX
10
193
20
210
30
0
9
$LIMMIN
10
0
20
0
9
$LIMMAX
10
420
20
297
9
$ORTHOMODE
70
0
9
$LTSCALE
40
1
9
$TEXTSTYLE
7
STANDARD
9
$CLAYER
8
Engraving
9
$DIMASZ
40
2.5
9
$DIMLFAC
40
1
9
$DIMSCALE
40
1
9
$DIMEXO
40
0.625
9
$DIMEXE
40
1.25
9
$DIMTXT
40
2.5
9
$DIMTSZ
40
0
9
$DIMAUNIT
70
0
9
$DIMADEC
70
2
9
$DIMLUNIT
70
2
9
$DIMSTYLE
2
STANDARD
9
$DIMGAP
40
0.625
9
$DIMTIH
70
0
9
$LUNITS
70
2
9
$LUPREC
70
4
9
$AUNITS
70
0
9
$AUPREC
70
2
9
$SPLINESEGS
70
8
9
$GRIDMODE
70
1
9
$SNAPSTYLE
70
0
9
$GRIDUNIT
10
0
20
0
9
$PINSBASE
10
0
20
0
30
0
9
$PLIMMIN
10
0
20
0
9
$PLIMMAX
10
200
20
220
9
$INSUNITS
70
4
9
$PSVPSCALE
40
1
0
ENDSEC
0
SECTION
2
CLASSES
0
ENDSEC
0
SECTION
2
TABLES
0
TABLE
2
VPORT
5
8
330
0
100
AcDbSymbolTable
70
1
0
VPORT
5
31
330
2
100
AcDbSymbolTableRecord
100
AcDbViewportTableRecord
2
*ACTIVE
70
0
10
0
20
0
11
1
21
1
12
200.920376712
22
119.113869863
13
0
23
0
14
10
24
10
15
10
25
10
16
0
26
0
36
1
17
0
27
0
37
0
40
337.114726027
41
1.684
42
50
43
0
44
0
50
0
51
0
71
0
72
100
73
1
74
3
75
0
76
1
77
0
78
0
281
0
65
1
110
0
120
0
130
0
111
1
121
0
131
0
112
0
122
1
132
0
79
0
146
0
348
10020
60
7
61
5
292
1
282
1
141
0
142
0
63
250
421
3358443
0
ENDTAB
0
TABLE
2
LTYPE
5
5
330
0
100
AcDbSymbolTable
70
4
0
LTYPE
5
14
330
5
100
AcDbSymbolTableRecord
100
AcDbLinetypeTableRecord
2
ByBlock
70
0
3

72
65
73
0
40
0
0
LTYPE
5
15
330
5
100
AcDbSymbolTableRecord
100
AcDbLinetypeTableRecord
2
ByLayer
70
0
3

72
65
73
0
40
0
0
LTYPE
5
16
330
5
100
AcDbSymbolTableRecord
100
AcDbLinetypeTableRecord
2
Continuous
70
0
3
Solid line
72
65
73
0
40
0
0
LTYPE
5
32
330
5
100
AcDbSymbolTableRecord
100
AcDbLinetypeTableRecord
2
DOT
70
0
3
Dot . . . . . . . . . . . . . . . . . . . . . .
72
65
73
2
40
6.35
49
0
74
0
49
-6.35
74
0
0
LTYPE
5
33
330
5
100
AcDbSymbolTableRecord
100
AcDbLinetypeTableRecord
2
DOT2
70
0
3
Dot (.5x) .....................................
72
65
73
2
40
3.175
49
0
74
0
49
-3.175
74
0
0
LTYPE
5
34
330
5
100
AcDbSymbolTableRecord
100
AcDbLinetypeTableRecord
2
DOTX2
70
0
3
Dot (2x) .  .  .  .  .  .  .  .  .  .  .  .  .
72
65
73
2
40
12.7
49
0
74
0
49
-12.7
74
0
0
LTYPE
5
35
330
5
100
AcDbSymbolTableRecord
100
AcDbLinetypeTableRecord
2
DASHED
70
0
3
Dot . . . . . . . . . . . . . . . . . . . . . .
72
65
73
2
40
19.05
49
12.7
74
0
49
-6.35
74
0
0
LTYPE
5
36
330
5
100
AcDbSymbolTableRecord
100
AcDbLinetypeTableRecord
2
DASHED2
70
0
3
Dashed (.5x) _ _ _ _ _ _ _ _ _ _ _ _ _ _ _ _ _
72
65
73
2
40
9.525
49
6.35
74
0
49
-3.175
74
0
0
LTYPE
5
37
330
5
100
AcDbSymbolTableRecord
100
AcDbLinetypeTableRecord
2
DASHEDX2
70
0
3
Dashed (2x) ____  ____  ____  ____  ____  ___
72
65
73
2
40
38.1
49
25.4
74
0
49
-12.7
74
0
0
LTYPE
5
38
330
5
100
AcDbSymbolTableRecord
100
AcDbLinetypeTableRecord
2
DASHDOT
70
0
3
Dash dot __ . __ . __ . __ . __ . __ . __ . __
72
65
73
4
40
25.4
49
12.7
74
0
49
-6.35
74
0
49
0
74
0
49
-6.35
74
0
0
LTYPE
5
39
330
5
100
AcDbSymbolTableRecord
100
AcDbLinetypeTableRecord
2
DASHDOT2
70
0
3
Dash dot (.5x) _._._._._._._._._._._._._._._.
72
65
73
4
40
12.7
49
6.35
74
0
49
-3.175
74
0
49
0
74
0
49
-3.175
74
0
0
LTYPE
5
3A
330
5
100
AcDbSymbolTableRecord
100
AcDbLinetypeTableRecord
2
DASHDOTX2
70
0
3
Dash dot (2x) ____  .  ____  .  ____  .  ___
72
65
73
4
40
50.8
49
25.4
74
0
49
-12.7
74
0
49
0
74
0
49
-12.7
74
0
0
LTYPE
5
3B
330
5
100
AcDbSymbolTableRecord
100
AcDbLinetypeTableRecord
2
DIVIDE
70
0
3
Divide ____ . . ____ . . ____ . . ____ . . ____
72
65
73
6
40
31.75
49
12.7
74
0
49
-6.35
74
0
49
0
74
0
49
-6.35
74
0
49
0
74
0
49
-6.35
74
0
0
LTYPE
5
3C
330
5
100
AcDbSymbolTableRecord
100
AcDbLinetypeTableRecord
2
DIVIDE2
70
0
3
Divide (.5x) __..__..__..__..__..__..__..__.._
72
65
73
6
40
15.875
49
6.35
74
0
49
-3.175
74
0
49
0
74
0
49
-3.175
74
0
49
0
74
0
49
-3.175
74
0
0
LTYPE
5
3D
330
5
100
AcDbSymbolTableRecord
100
AcDbLinetypeTableRecord
2
DIVIDEX2
70
0
3
Divide (2x) ________  .  .  ________  .  .  _
72
65
73
6
40
63.5
49
25.4
74
0
49
-12.7
74
0
49
0
74
0
49
-12.7
74
0
49
0
74
0
49
-12.7
74
0
0
LTYPE
5
3E
330
5
100
AcDbSymbolTableRecord
100
AcDbLinetypeTableRecord
2
BORDER
70
0
3
Border __ __ . __ __ . __ __ . __ __ . __ __ .
72
65
73
6
40
44.45
49
12.7
74
0
49
-6.35
74
0
49
12.7
74
0
49
-6.35
74
0
49
0
74
0
49
-6.35
74
0
0
LTYPE
5
3F
330
5
100
AcDbSymbolTableRecord
100
AcDbLinetypeTableRecord
2
BORDER2
70
0
3
Border (.5x) __.__.__.__.__.__.__.__.__.__.__.
72
65
73
6
40
22.225
49
6.35
74
0
49
-3.175
74
0
49
6.35
74
0
49
-3.175
74
0
49
0
74
0
49
-3.175
74
0
0
LTYPE
5
40
330
5
100
AcDbSymbolTableRecord
100
AcDbLinetypeTableRecord
2
BORDERX2
70
0
3
Border (2x) ____  ____  .  ____  ____  .  ___
72
65
73
6
40
88.9
49
25.4
74
0
49
-12.7
74
0
49
25.4
74
0
49
-12.7
74
0
49
0
74
0
49
-12.7
74
0
0
LTYPE
5
41
330
5
100
AcDbSymbolTableRecord
100
AcDbLinetypeTableRecord
2
CENTER
70
0
3
Center ____ _ ____ _ ____ _ ____ _ ____ _ ____
72
65
73
4
40
50.8
49
31.75
74
0
49
-6.35
74
0
49
6.35
74
0
49
-6.35
74
0
0
LTYPE
5
42
330
5
100
AcDbSymbolTableRecord
100
AcDbLinetypeTableRecord
2
CENTER2
70
0
3
Center (.5x) ___ _ ___ _ ___ _ ___ _ ___ _ ___
72
65
73
4
40
28.575
49
19.05
74
0
49
-3.175
74
0
49
3.175
74
0
49
-3.175
74
0
0
LTYPE
5
43
330
5
100
AcDbSymbolTableRecord
100
AcDbLinetypeTableRecord
2
CENTERX2
70
0
3
Center (2x) ________  __  ________  __  _____
72
65
73
4
40
101.6
49
63.5
74
0
49
-12.7
74
0
49
12.7
74
0
49
-12.7
74
0
0
ENDTAB
0
TABLE
2
LAYER
5
2
330
0
100
AcDbSymbolTable
70
1
0
LAYER
5
10
330
2
100
AcDbSymbolTableRecord
100
AcDbLayerTableRecord
2
0
70
0
62
7
6
CONTINUOUS
370
0
390
F
0
LAYER
5
44
330
2
100
AcDbSymbolTableRecord
100
AcDbLayerTableRecord
2
M3_ScrewJoint
70
0
62
1
6
CONTINUOUS
370
0
390
F
0
LAYER
5
45
330
2
100
AcDbSymbolTableRecord
100
AcDbLayerTableRecord
2
PanelOuter
70
0
62
1
6
CONTINUOUS
370
0
390
F
0
LAYER
5
46
330
2
100
AcDbSymbolTableRecord
100
AcDbLayerTableRecord
2
2xPowerConn_MountingHoles
70
0
62
1
6
CONTINUOUS
370
0
390
F
0
LAYER
5
47
330
2
100
AcDbSymbolTableRecord
100
AcDbLayerTableRecord
2
2xPowerConn_Outer
70
0
62
2
6
CONTINUOUS
370
0
390
F
0
LAYER
5
48
330
2
100
AcDbSymbolTableRecord
100
AcDbLayerTableRecord
2
NKK-CW-SW_Cutout
70
0
62
1
6
CONTINUOUS
370
0
390
F
0
LAYER
5
49
330
2
100
AcDbSymbolTableRecord
100
AcDbLayerTableRecord
2
NKK-M-SW_Cutout
70
0
62
1
6
CONTINUOUS
370
0
390
F
0
LAYER
5
4A
330
2
100
AcDbSymbolTableRecord
100
AcDbLayerTableRecord
2
NKK-M-SW_MountingHoles
70
0
62
1
6
CONTINUOUS
370
0
390
F
0
LAYER
5
4B
330
2
100
AcDbSymbolTableRecord
100
AcDbLayerTableRecord
2
SwitchOption_Engraving
70
0
62
7
6
CONTINUOUS
370
0
390
F
0
LAYER
5
4C
330
2
100
AcDbSymbolTableRecord
100
AcDbLayerTableRecord
2
Engraving
70
0
62
7
6
CONTINUOUS
370
0
390
F
0
LAYER
5
4D
330
2
100
AcDbSymbolTableRecord
100
AcDbLayerTableRecord
2
SwitchOption_Cutouts
70
0
62
1
6
CONTINUOUS
370
0
390
F
0
LAYER
5
4E
330
2
100
AcDbSymbolTableRecord
100
AcDbLayerTableRecord
2
MiscPanel_Cutouts
70
0
62
1
6
CONTINUOUS
370
0
390
F
0
ENDTAB
0
TABLE
2
STYLE
5
3
330
0
100
AcDbSymbolTable
70
3
0
STYLE
5
4F
330
2
100
AcDbSymbolTableRecord
100
AcDbTextStyleTableRecord
2
iso
70
0
40
0
41
1
50
0
71
0
42
1
3
iso
4

0
STYLE
5
50
330
2
100
AcDbSymbolTableRecord
100
AcDbTextStyleTableRecord
2
Standard
70
0
40
0
41
1
50
0
71
0
42
1
3
txt
4

0
ENDTAB
0
TABLE
2
VIEW
5
6
330
0
100
AcDbSymbolTable
70
0
0
ENDTAB
0
TABLE
2
UCS
5
7
330
0
100
AcDbSymbolTable
70
0
0
ENDTAB
0
TABLE
2
APPID
5
9
330
0
100
AcDbSymbolTable
70
1
0
APPID
5
12
330
9
100
AcDbSymbolTableRecord
100
AcDbRegAppTableRecord
2
ACAD
70
0
0
ENDTAB
0
TABLE
2
DIMSTYLE
5
A
330
0
100
AcDbSymbolTable
70
1
100
AcDbDimStyleTable
71
1
0
DIMSTYLE
105
51
330
A
100
AcDbSymbolTableRecord
100
AcDbDimStyleTableRecord
2
Standard
70
0
40
1
41
2.5
42
0.625
43
0.38
44
1.25
45
0
46
0
47
0
48
0
140
2.5
141
0.09
142
0
143
25.4
144
1
145
0
146
1
147
0.625
148
0
71
0
72
0
73
0
74
1
75
0
76
0
77
0
78
0
79
0
170
0
171
2
172
0
173
0
174
0
175
0
176
0
177
0
178
0
179
0
271
4
272
4
273
2
274
2
275
0
276
0
277
2
278
46
279
0
280
0
281
0
282
0
283
1
284
0
285
0
286
0
288
0
289
3
340
Standard
341

371
-2
372
-2
0
ENDTAB
0
TABLE
2
BLOCK_RECORD
5
1
330
0
100
AcDbSymbolTable
70
2
0
BLOCK_RECORD
5
1F
330
1
100
AcDbSymbolTableRecord
100
AcDbBlockTableRecord
2
*Model_Space
70
0
280
1
281
0
0
BLOCK_RECORD
5
1E
330
1
100
AcDbSymbolTableRecord
100
AcDbBlockTableRecord
2
*Paper_Space
70
0
280
1
281
0
0
BLOCK_RECORD
5
52
330
1
100
AcDbSymbolTableRecord
100
AcDbBlockTableRecord
2
M3_ScrewJoint-0
70
0
280
1
281
0
0
BLOCK_RECORD
5
55
330
1
100
AcDbSymbolTableRecord
100
AcDbBlockTableRecord
2
M3_ScrewJoint-1
70
0
280
1
281
0
0
BLOCK_RECORD
5
58
330
1
100
AcDbSymbolTableRecord
100
AcDbBlockTableRecord
2
M3_ScrewJoint-2
70
0
280
1
281
0
0
BLOCK_RECORD
5
5B
330
1
100
AcDbSymbolTableRecord
100
AcDbBlockTableRecord
2
2Pole_PowerConnector-0
70
0
280
1
281
0
0
BLOCK_RECORD
5
5E
330
1
100
AcDbSymbolTableRecord
100
AcDbBlockTableRecord
2
2Pole_PowerConnector-1
70
0
280
1
281
0
0
BLOCK_RECORD
5
61
330
1
100
AcDbSymbolTableRecord
100
AcDbBlockTableRecord
2
2Pole_PowerConnector-2
70
0
280
1
281
0
0
BLOCK_RECORD
5
64
330
1
100
AcDbSymbolTableRecord
100
AcDbBlockTableRecord
2
2Pole_PowerConnector-3
70
0
280
1
281
0
0
BLOCK_RECORD
5
67
330
1
100
AcDbSymbolTableRecord
100
AcDbBlockTableRecord
2
2Pole_PowerConnector-4
70
0
280
1
281
0
0
BLOCK_RECORD
5
6A
330
1
100
AcDbSymbolTableRecord
100
AcDbBlockTableRecord
2
2Pole_PowerConnector-5
70
0
280
1
281
0
0
BLOCK_RECORD
5
6D
330
1
100
AcDbSymbolTableRecord
100
AcDbBlockTableRecord
2
2Pole_PowerConnector-6
70
0
280
1
281
0
0
BLOCK_RECORD
5
70
330
1
100
AcDbSymbolTableRecord
100
AcDbBlockTableRecord
2
2Pole_PowerConnector-7
70
0
280
1
281
0
0
BLOCK_RECORD
5
73
330
1
100
AcDbSymbolTableRecord
100
AcDbBlockTableRecord
2
2Pole_PowerConnector-8
70
0
280
1
281
0
0
BLOCK_RECORD
5
76
330
1
100
AcDbSymbolTableRecord
100
AcDbBlockTableRecord
2
NKK_CW-Series_Switch_Cutout-0
70
0
280
1
281
0
0
BLOCK_RECORD
5
79
330
1
100
AcDbSymbolTableRecord
100
AcDbBlockTableRecord
2
NKK_CW-Series_Switch_Cutout-1
70
0
280
1
281
0
0
BLOCK_RECORD
5
7C
330
1
100
AcDbSymbolTableRecord
100
AcDbBlockTableRecord
2
NKK_CW-Series_Switch_Cutout-2
70
0
280
1
281
0
0
BLOCK_RECORD
5
7F
330
1
100
AcDbSymbolTableRecord
100
AcDbBlockTableRecord
2
NKK_CW-Series_Switch_Cutout-3
70
0
280
1
281
0
0
BLOCK_RECORD
5
82
330
1
100
AcDbSymbolTableRecord
100
AcDbBlockTableRecord
2
NKK_CW-Series_Switch_Cutout-4
70
0
280
1
281
0
0
BLOCK_RECORD
5
85
330
1
100
AcDbSymbolTableRecord
100
AcDbBlockTableRecord
2
NKK_CW-Series_Switch_Cutout-5
70
0
280
1
281
0
0
BLOCK_RECORD
5
88
330
1
100
AcDbSymbolTableRecord
100
AcDbBlockTableRecord
2
NKK_CW-Series_Switch_Cutout-6
70
0
280
1
281
0
0
BLOCK_RECORD
5
8B
330
1
100
AcDbSymbolTableRecord
100
AcDbBlockTableRecord
2
NKK_M-Series_TN-Type-0
70
0
280
1
281
0
0
BLOCK_RECORD
5
8E
330
1
100
AcDbSymbolTableRecord
100
AcDbBlockTableRecord
2
2Pole_PowerConnector-9
70
0
280
1
281
0
0
BLOCK_RECORD
5
91
330
1
100
AcDbSymbolTableRecord
100
AcDbBlockTableRecord
2
Ground-0
70
0
280
1
281
0
0
BLOCK_RECORD
5
94
330
1
100
AcDbSymbolTableRecord
100
AcDbBlockTableRecord
2
Ground-1
70
0
280
1
281
0
0
BLOCK_RECORD
5
97
330
1
100
AcDbSymbolTableRecord
100
AcDbBlockTableRecord
2
Ground-2
70
0
280
1
281
0
0
BLOCK_RECORD
5
9A
330
1
100
AcDbSymbolTableRecord
100
AcDbBlockTableRecord
2
Ground-3
70
0
280
1
281
0
0
BLOCK_RECORD
5
9D
330
1
100
AcDbSymbolTableRecord
100
AcDbBlockTableRecord
2
Ground-4
70
0
280
1
281
0
0
BLOCK_RECORD
5
A0
330
1
100
AcDbSymbolTableRecord
100
AcDbBlockTableRecord
2
Ground-5
70
0
280
1
281
0
0
BLOCK_RECORD
5
A3
330
1
100
AcDbSymbolTableRecord
100
AcDbBlockTableRecord
2
Ground-6
70
0
280
1
281
0
0
BLOCK_RECORD
5
A6
330
1
100
AcDbSymbolTableRecord
100
AcDbBlockTableRecord
2
Ground-7
70
0
280
1
281
0
0
BLOCK_RECORD
5
A9
330
1
100
AcDbSymbolTableRecord
100
AcDbBlockTableRecord
2
Ground-8
70
0
280
1
281
0
0
ENDTAB
0
ENDSEC
0
SECTION
2
BLOCKS
0
BLOCK
5
20
330
1F
100
AcDbEntity
8
0
100
AcDbBlockBegin
2
*Model_Space
70
0
10
0
20
0
30
0
3
*Model_Space
1

0
ENDBLK
5
21
330
1F
100
AcDbEntity
8
0
100
AcDbBlockEnd
0
BLOCK
5
1C
330
1B
100
AcDbEntity
8
0
100
AcDbBlockBegin
2
*Paper_Space
70
0
10
0
20
0
30
0
3
*Paper_Space
1

0
ENDBLK
5
1D
330
1F
100
AcDbEntity
8
0
100
AcDbBlockEnd
0
BLOCK
5
53
330
52
100
AcDbEntity
8
0
100
AcDbBlockBegin
2
M3_ScrewJoint-0
70
0
10
0
20
0
3
M3_ScrewJoint-0
1

0
LINE
5
AC
100
AcDbEntity
8
M3_ScrewJoint
6
ByLayer
62
256
370
-1
100
AcDbLine
10
1.75
20
10
11
-1.75
21
10
0
LINE
5
AD
100
AcDbEntity
8
M3_ScrewJoint
6
ByLayer
62
256
370
-1
100
AcDbLine
10
-3
20
8
11
-3
21
5.5
0
LINE
5
AE
100
AcDbEntity
8
M3_ScrewJoint
6
ByLayer
62
256
370
-1
100
AcDbLine
10
3
20
8
11
3
21
5.5
0
LINE
5
AF
100
AcDbEntity
8
M3_ScrewJoint
6
ByLayer
62
256
370
-1
100
AcDbLine
10
-1.75
20
5.5
11
-1.75
21
0
0
LINE
5
B0
100
AcDbEntity
8
M3_ScrewJoint
6
ByLayer
62
256
370
-1
100
AcDbLine
10
-1.75
20
10
11
-1.75
21
8
0
LINE
5
B1
100
AcDbEntity
8
M3_ScrewJoint
6
ByLayer
62
256
370
-1
100
AcDbLine
10
1.75
20
8
11
1.75
21
10
0
LINE
5
B2
100
AcDbEntity
8
M3_ScrewJoint
6
ByLayer
62
256
370
-1
100
AcDbLine
10
1.75
20
0
11
1.75
21
5.5
0
LINE
5
B3
100
AcDbEntity
8
M3_ScrewJoint
6
ByLayer
62
256
370
-1
100
AcDbLine
10
-3
20
5.5
11
-1.75
21
5.5
0
LINE
5
B4
100
AcDbEntity
8
M3_ScrewJoint
6
ByLayer
62
256
370
-1
100
AcDbLine
10
1.75
20
5.5
11
3
21
5.5
0
LINE
5
B5
100
AcDbEntity
8
M3_ScrewJoint
6
ByLayer
62
256
370
-1
100
AcDbLine
10
3
20
8
11
1.75
21
8
0
LINE
5
B6
100
AcDbEntity
8
M3_ScrewJoint
6
ByLayer
62
256
370
-1
100
AcDbLine
10
-1.75
20
8
11
-3
21
8
0
ENDBLK
5
54
330
52
100
AcDbEntity
8
0
100
AcDbBlockEnd
0
BLOCK
5
56
330
55
100
AcDbEntity
8
0
100
AcDbBlockBegin
2
M3_ScrewJoint-1
70
0
10
0
20
0
3
M3_ScrewJoint-1
1

0
LINE
5
B7
100
AcDbEntity
8
M3_ScrewJoint
6
ByLayer
62
256
370
-1
100
AcDbLine
10
1.75
20
10
11
-1.75
21
10
0
LINE
5
B8
100
AcDbEntity
8
M3_ScrewJoint
6
ByLayer
62
256
370
-1
100
AcDbLine
10
-3
20
8
11
-3
21
5.5
0
LINE
5
B9
100
AcDbEntity
8
M3_ScrewJoint
6
ByLayer
62
256
370
-1
100
AcDbLine
10
3
20
8
11
3
21
5.5
0
LINE
5
BA
100
AcDbEntity
8
M3_ScrewJoint
6
ByLayer
62
256
370
-1
100
AcDbLine
10
-1.75
20
5.5
11
-1.75
21
0
0
LINE
5
BB
100
AcDbEntity
8
M3_ScrewJoint
6
ByLayer
62
256
370
-1
100
AcDbLine
10
-1.75
20
10
11
-1.75
21
8
0
LINE
5
BC
100
AcDbEntity
8
M3_ScrewJoint
6
ByLayer
62
256
370
-1
100
AcDbLine
10
1.75
20
8
11
1.75
21
10
0
LINE
5
BD
100
AcDbEntity
8
M3_ScrewJoint
6
ByLayer
62
256
370
-1
100
AcDbLine
10
1.75
20
0
11
1.75
21
5.5
0
LINE
5
BE
100
AcDbEntity
8
M3_ScrewJoint
6
ByLayer
62
256
370
-1
100
AcDbLine
10
-3
20
5.5
11
-1.75
21
5.5
0
LINE
5
BF
100
AcDbEntity
8
M3_ScrewJoint
6
ByLayer
62
256
370
-1
100
AcDbLine
10
1.75
20
5.5
11
3
21
5.5
0
LINE
5
C0
100
AcDbEntity
8
M3_ScrewJoint
6
ByLayer
62
256
370
-1
100
AcDbLine
10
3
20
8
11
1.75
21
8
0
LINE
5
C1
100
AcDbEntity
8
M3_ScrewJoint
6
ByLayer
62
256
370
-1
100
AcDbLine
10
-1.75
20
8
11
-3
21
8
0
ENDBLK
5
57
330
55
100
AcDbEntity
8
0
100
AcDbBlockEnd
0
BLOCK
5
59
330
58
100
AcDbEntity
8
0
100
AcDbBlockBegin
2
M3_ScrewJoint-2
70
0
10
0
20
0
3
M3_ScrewJoint-2
1

0
LINE
5
C2
100
AcDbEntity
8
M3_ScrewJoint
6
ByLayer
62
256
370
-1
100
AcDbLine
10
1.75
20
10
11
-1.75
21
10
0
LINE
5
C3
100
AcDbEntity
8
M3_ScrewJoint
6
ByLayer
62
256
370
-1
100
AcDbLine
10
-3
20
8
11
-3
21
5.5
0
LINE
5
C4
100
AcDbEntity
8
M3_ScrewJoint
6
ByLayer
62
256
370
-1
100
AcDbLine
10
3
20
8
11
3
21
5.5
0
LINE
5
C5
100
AcDbEntity
8
M3_ScrewJoint
6
ByLayer
62
256
370
-1
100
AcDbLine
10
-1.75
20
5.5
11
-1.75
21
0
0
LINE
5
C6
100
AcDbEntity
8
M3_ScrewJoint
6
ByLayer
62
256
370
-1
100
AcDbLine
10
-1.75
20
10
11
-1.75
21
8
0
LINE
5
C7
100
AcDbEntity
8
M3_ScrewJoint
6
ByLayer
62
256
370
-1
100
AcDbLine
10
1.75
20
8
11
1.75
21
10
0
LINE
5
C8
100
AcDbEntity
8
M3_ScrewJoint
6
ByLayer
62
256
370
-1
100
AcDbLine
10
1.75
20
0
11
1.75
21
5.5
0
LINE
5
C9
100
AcDbEntity
8
M3_ScrewJoint
6
ByLayer
62
256
370
-1
100
AcDbLine
10
-3
20
5.5
11
-1.75
21
5.5
0
LINE
5
CA
100
AcDbEntity
8
M3_ScrewJoint
6
ByLayer
62
256
370
-1
100
AcDbLine
10
1.75
20
5.5
11
3
21
5.5
0
LINE
5
CB
100
AcDbEntity
8
M3_ScrewJoint
6
ByLayer
62
256
370
-1
100
AcDbLine
10
3
20
8
11
1.75
21
8
0
LINE
5
CC
100
AcDbEntity
8
M3_ScrewJoint
6
ByLayer
62
256
370
-1
100
AcDbLine
10
-1.75
20
8
11
-3
21
8
0
ENDBLK
5
5A
330
58
100
AcDbEntity
8
0
100
AcDbBlockEnd
0
BLOCK
5
5C
330
5B
100
AcDbEntity
8
0
100
AcDbBlockBegin
2
2Pole_PowerConnector-0
70
0
10
0
20
0
3
2Pole_PowerConnector-0
1

0
CIRCLE
5
CD
100
AcDbEntity
8
2xPowerConn_MountingHoles
6
ByLayer
62
256
370
-1
100
AcDbCircle
10
-9
20
0
40
6
0
CIRCLE
5
CE
100
AcDbEntity
8
2xPowerConn_MountingHoles
6
ByLayer
62
256
370
-1
100
AcDbCircle
10
9
20
0
40
6
0
LINE
5
CF
100
AcDbEntity
8
2xPowerConn_Outer
6
ByLayer
62
256
370
-1
100
AcDbLine
10
-9
20
7.5
11
9
21
7.5
0
LINE
5
D0
100
AcDbEntity
8
2xPowerConn_Outer
6
ByLayer
62
256
370
-1
100
AcDbLine
10
9
20
-7.5
11
-9
21
-7.5
0
ARC
5
D1
100
AcDbEntity
8
2xPowerConn_Outer
6
ByLayer
62
256
370
-1
100
AcDbCircle
10
-9
20
0
40
7.5
100
AcDbArc
50
90
51
270
0
ARC
5
D2
100
AcDbEntity
8
2xPowerConn_Outer
6
ByLayer
62
256
370
-1
100
AcDbCircle
10
9
20
0
40
7.5
100
AcDbArc
50
270
51
90
0
ENDBLK
5
5D
330
5B
100
AcDbEntity
8
0
100
AcDbBlockEnd
0
BLOCK
5
5F
330
5E
100
AcDbEntity
8
0
100
AcDbBlockBegin
2
2Pole_PowerConnector-1
70
0
10
0
20
0
3
2Pole_PowerConnector-1
1

0
CIRCLE
5
D3
100
AcDbEntity
8
2xPowerConn_MountingHoles
6
ByLayer
62
256
370
-1
100
AcDbCircle
10
-9
20
0
40
6
0
CIRCLE
5
D4
100
AcDbEntity
8
2xPowerConn_MountingHoles
6
ByLayer
62
256
370
-1
100
AcDbCircle
10
9
20
0
40
6
0
LINE
5
D5
100
AcDbEntity
8
2xPowerConn_Outer
6
ByLayer
62
256
370
-1
100
AcDbLine
10
-9
20
7.5
11
9
21
7.5
0
LINE
5
D6
100
AcDbEntity
8
2xPowerConn_Outer
6
ByLayer
62
256
370
-1
100
AcDbLine
10
9
20
-7.5
11
-9
21
-7.5
0
ARC
5
D7
100
AcDbEntity
8
2xPowerConn_Outer
6
ByLayer
62
256
370
-1
100
AcDbCircle
10
-9
20
0
40
7.5
100
AcDbArc
50
90
51
270
0
ARC
5
D8
100
AcDbEntity
8
2xPowerConn_Outer
6
ByLayer
62
256
370
-1
100
AcDbCircle
10
9
20
0
40
7.5
100
AcDbArc
50
270
51
90
0
ENDBLK
5
60
330
5E
100
AcDbEntity
8
0
100
AcDbBlockEnd
0
BLOCK
5
62
330
61
100
AcDbEntity
8
0
100
AcDbBlockBegin
2
2Pole_PowerConnector-2
70
0
10
0
20
0
3
2Pole_PowerConnector-2
1

0
CIRCLE
5
D9
100
AcDbEntity
8
2xPowerConn_MountingHoles
6
ByLayer
62
256
370
-1
100
AcDbCircle
10
-9
20
0
40
6
0
CIRCLE
5
DA
100
AcDbEntity
8
2xPowerConn_MountingHoles
6
ByLayer
62
256
370
-1
100
AcDbCircle
10
9
20
0
40
6
0
LINE
5
DB
100
AcDbEntity
8
2xPowerConn_Outer
6
ByLayer
62
256
370
-1
100
AcDbLine
10
-9
20
7.5
11
9
21
7.5
0
LINE
5
DC
100
AcDbEntity
8
2xPowerConn_Outer
6
ByLayer
62
256
370
-1
100
AcDbLine
10
9
20
-7.5
11
-9
21
-7.5
0
ARC
5
DD
100
AcDbEntity
8
2xPowerConn_Outer
6
ByLayer
62
256
370
-1
100
AcDbCircle
10
-9
20
0
40
7.5
100
AcDbArc
50
90
51
270
0
ARC
5
DE
100
AcDbEntity
8
2xPowerConn_Outer
6
ByLayer
62
256
370
-1
100
AcDbCircle
10
9
20
0
40
7.5
100
AcDbArc
50
270
51
90
0
ENDBLK
5
63
330
61
100
AcDbEntity
8
0
100
AcDbBlockEnd
0
BLOCK
5
65
330
64
100
AcDbEntity
8
0
100
AcDbBlockBegin
2
2Pole_PowerConnector-3
70
0
10
0
20
0
3
2Pole_PowerConnector-3
1

0
CIRCLE
5
DF
100
AcDbEntity
8
2xPowerConn_MountingHoles
6
ByLayer
62
256
370
-1
100
AcDbCircle
10
-9
20
0
40
6
0
CIRCLE
5
E0
100
AcDbEntity
8
2xPowerConn_MountingHoles
6
ByLayer
62
256
370
-1
100
AcDbCircle
10
9
20
0
40
6
0
LINE
5
E1
100
AcDbEntity
8
2xPowerConn_Outer
6
ByLayer
62
256
370
-1
100
AcDbLine
10
-9
20
7.5
11
9
21
7.5
0
LINE
5
E2
100
AcDbEntity
8
2xPowerConn_Outer
6
ByLayer
62
256
370
-1
100
AcDbLine
10
9
20
-7.5
11
-9
21
-7.5
0
ARC
5
E3
100
AcDbEntity
8
2xPowerConn_Outer
6
ByLayer
62
256
370
-1
100
AcDbCircle
10
-9
20
0
40
7.5
100
AcDbArc
50
90
51
270
0
ARC
5
E4
100
AcDbEntity
8
2xPowerConn_Outer
6
ByLayer
62
256
370
-1
100
AcDbCircle
10
9
20
0
40
7.5
100
AcDbArc
50
270
51
90
0
ENDBLK
5
66
330
64
100
AcDbEntity
8
0
100
AcDbBlockEnd
0
BLOCK
5
68
330
67
100
AcDbEntity
8
0
100
AcDbBlockBegin
2
2Pole_PowerConnector-4
70
0
10
0
20
0
3
2Pole_PowerConnector-4
1

0
CIRCLE
5
E5
100
AcDbEntity
8
2xPowerConn_MountingHoles
6
ByLayer
62
256
370
-1
100
AcDbCircle
10
-9
20
0
40
6
0
CIRCLE
5
E6
100
AcDbEntity
8
2xPowerConn_MountingHoles
6
ByLayer
62
256
370
-1
100
AcDbCircle
10
9
20
0
40
6
0
LINE
5
E7
100
AcDbEntity
8
2xPowerConn_Outer
6
ByLayer
62
256
370
-1
100
AcDbLine
10
-9
20
7.5
11
9
21
7.5
0
LINE
5
E8
100
AcDbEntity
8
2xPowerConn_Outer
6
ByLayer
62
256
370
-1
100
AcDbLine
10
9
20
-7.5
11
-9
21
-7.5
0
ARC
5
E9
100
AcDbEntity
8
2xPowerConn_Outer
6
ByLayer
62
256
370
-1
100
AcDbCircle
10
-9
20
0
40
7.5
100
AcDbArc
50
90
51
270
0
ARC
5
EA
100
AcDbEntity
8
2xPowerConn_Outer
6
ByLayer
62
256
370
-1
100
AcDbCircle
10
9
20
0
40
7.5
100
AcDbArc
50
270
51
90
0
ENDBLK
5
69
330
67
100
AcDbEntity
8
0
100
AcDbBlockEnd
0
BLOCK
5
6B
330
6A
100
AcDbEntity
8
0
100
AcDbBlockBegin
2
2Pole_PowerConnector-5
70
0
10
0
20
0
3
2Pole_PowerConnector-5
1

0
CIRCLE
5
EB
100
AcDbEntity
8
2xPowerConn_MountingHoles
6
ByLayer
62
256
370
-1
100
AcDbCircle
10
-9
20
0
40
6
0
CIRCLE
5
EC
100
AcDbEntity
8
2xPowerConn_MountingHoles
6
ByLayer
62
256
370
-1
100
AcDbCircle
10
9
20
0
40
6
0
LINE
5
ED
100
AcDbEntity
8
2xPowerConn_Outer
6
ByLayer
62
256
370
-1
100
AcDbLine
10
-9
20
7.5
11
9
21
7.5
0
LINE
5
EE
100
AcDbEntity
8
2xPowerConn_Outer
6
ByLayer
62
256
370
-1
100
AcDbLine
10
9
20
-7.5
11
-9
21
-7.5
0
ARC
5
EF
100
AcDbEntity
8
2xPowerConn_Outer
6
ByLayer
62
256
370
-1
100
AcDbCircle
10
-9
20
0
40
7.5
100
AcDbArc
50
90
51
270
0
ARC
5
F0
100
AcDbEntity
8
2xPowerConn_Outer
6
ByLayer
62
256
370
-1
100
AcDbCircle
10
9
20
0
40
7.5
100
AcDbArc
50
270
51
90
0
ENDBLK
5
6C
330
6A
100
AcDbEntity
8
0
100
AcDbBlockEnd
0
BLOCK
5
6E
330
6D
100
AcDbEntity
8
0
100
AcDbBlockBegin
2
2Pole_PowerConnector-6
70
0
10
0
20
0
3
2Pole_PowerConnector-6
1

0
CIRCLE
5
F1
100
AcDbEntity
8
2xPowerConn_MountingHoles
6
ByLayer
62
256
370
-1
100
AcDbCircle
10
-9
20
0
40
6
0
CIRCLE
5
F2
100
AcDbEntity
8
2xPowerConn_MountingHoles
6
ByLayer
62
256
370
-1
100
AcDbCircle
10
9
20
0
40
6
0
LINE
5
F3
100
AcDbEntity
8
2xPowerConn_Outer
6
ByLayer
62
256
370
-1
100
AcDbLine
10
-9
20
7.5
11
9
21
7.5
0
LINE
5
F4
100
AcDbEntity
8
2xPowerConn_Outer
6
ByLayer
62
256
370
-1
100
AcDbLine
10
9
20
-7.5
11
-9
21
-7.5
0
ARC
5
F5
100
AcDbEntity
8
2xPowerConn_Outer
6
ByLayer
62
256
370
-1
100
AcDbCircle
10
-9
20
0
40
7.5
100
AcDbArc
50
90
51
270
0
ARC
5
F6
100
AcDbEntity
8
2xPowerConn_Outer
6
ByLayer
62
256
370
-1
100
AcDbCircle
10
9
20
0
40
7.5
100
AcDbArc
50
270
51
90
0
ENDBLK
5
6F
330
6D
100
AcDbEntity
8
0
100
AcDbBlockEnd
0
BLOCK
5
71
330
70
100
AcDbEntity
8
0
100
AcDbBlockBegin
2
2Pole_PowerConnector-7
70
0
10
0
20
0
3
2Pole_PowerConnector-7
1

0
CIRCLE
5
F7
100
AcDbEntity
8
2xPowerConn_MountingHoles
6
ByLayer
62
256
370
-1
100
AcDbCircle
10
-9
20
0
40
6
0
CIRCLE
5
F8
100
AcDbEntity
8
2xPowerConn_MountingHoles
6
ByLayer
62
256
370
-1
100
AcDbCircle
10
9
20
0
40
6
0
LINE
5
F9
100
AcDbEntity
8
2xPowerConn_Outer
6
ByLayer
62
256
370
-1
100
AcDbLine
10
-9
20
7.5
11
9
21
7.5
0
LINE
5
FA
100
AcDbEntity
8
2xPowerConn_Outer
6
ByLayer
62
256
370
-1
100
AcDbLine
10
9
20
-7.5
11
-9
21
-7.5
0
ARC
5
FB
100
AcDbEntity
8
2xPowerConn_Outer
6
ByLayer
62
256
370
-1
100
AcDbCircle
10
-9
20
0
40
7.5
100
AcDbArc
50
90
51
270
0
ARC
5
FC
100
AcDbEntity
8
2xPowerConn_Outer
6
ByLayer
62
256
370
-1
100
AcDbCircle
10
9
20
0
40
7.5
100
AcDbArc
50
270
51
90
0
ENDBLK
5
72
330
70
100
AcDbEntity
8
0
100
AcDbBlockEnd
0
BLOCK
5
74
330
73
100
AcDbEntity
8
0
100
AcDbBlockBegin
2
2Pole_PowerConnector-8
70
0
10
0
20
0
3
2Pole_PowerConnector-8
1

0
CIRCLE
5
FD
100
AcDbEntity
8
2xPowerConn_MountingHoles
6
ByLayer
62
256
370
-1
100
AcDbCircle
10
-9
20
0
40
6
0
CIRCLE
5
FE
100
AcDbEntity
8
2xPowerConn_MountingHoles
6
ByLayer
62
256
370
-1
100
AcDbCircle
10
9
20
0
40
6
0
LINE
5
FF
100
AcDbEntity
8
2xPowerConn_Outer
6
ByLayer
62
256
370
-1
100
AcDbLine
10
-9
20
7.5
11
9
21
7.5
0
LINE
5
100
100
AcDbEntity
8
2xPowerConn_Outer
6
ByLayer
62
256
370
-1
100
AcDbLine
10
9
20
-7.5
11
-9
21
-7.5
0
ARC
5
101
100
AcDbEntity
8
2xPowerConn_Outer
6
ByLayer
62
256
370
-1
100
AcDbCircle
10
-9
20
0
40
7.5
100
AcDbArc
50
90
51
270
0
ARC
5
102
100
AcDbEntity
8
2xPowerConn_Outer
6
ByLayer
62
256
370
-1
100
AcDbCircle
10
9
20
0
40
7.5
100
AcDbArc
50
270
51
90
0
ENDBLK
5
75
330
73
100
AcDbEntity
8
0
100
AcDbBlockEnd
0
BLOCK
5
77
330
76
100
AcDbEntity
8
0
100
AcDbBlockBegin
2
NKK_CW-Series_Switch_Cutout-0
70
0
10
0
20
0
3
NKK_CW-Series_Switch_Cutout-0
1

0
LINE
5
103
100
AcDbEntity
8
NKK-CW-SW_Cutout
6
ByLayer
62
256
370
-1
100
AcDbLine
10
-6.45
20
-9.6
11
6.45
21
-9.6
0
LINE
5
104
100
AcDbEntity
8
NKK-CW-SW_Cutout
6
ByLayer
62
256
370
-1
100
AcDbLine
10
-6.45
20
-9.6
11
-6.45
21
9.6
0
LINE
5
105
100
AcDbEntity
8
NKK-CW-SW_Cutout
6
ByLayer
62
256
370
-1
100
AcDbLine
10
6.45
20
-9.6
11
6.45
21
9.6
0
LINE
5
106
100
AcDbEntity
8
NKK-CW-SW_Cutout
6
ByLayer
62
256
370
-1
100
AcDbLine
10
-6.45
20
9.6
11
6.45
21
9.6
0
ENDBLK
5
78
330
76
100
AcDbEntity
8
0
100
AcDbBlockEnd
0
BLOCK
5
7A
330
79
100
AcDbEntity
8
0
100
AcDbBlockBegin
2
NKK_CW-Series_Switch_Cutout-1
70
0
10
0
20
0
3
NKK_CW-Series_Switch_Cutout-1
1

0
LINE
5
107
100
AcDbEntity
8
NKK-CW-SW_Cutout
6
ByLayer
62
256
370
-1
100
AcDbLine
10
-6.45
20
-9.6
11
6.45
21
-9.6
0
LINE
5
108
100
AcDbEntity
8
NKK-CW-SW_Cutout
6
ByLayer
62
256
370
-1
100
AcDbLine
10
-6.45
20
-9.6
11
-6.45
21
9.6
0
LINE
5
109
100
AcDbEntity
8
NKK-CW-SW_Cutout
6
ByLayer
62
256
370
-1
100
AcDbLine
10
6.45
20
-9.6
11
6.45
21
9.6
0
LINE
5
10A
100
AcDbEntity
8
NKK-CW-SW_Cutout
6
ByLayer
62
256
370
-1
100
AcDbLine
10
-6.45
20
9.6
11
6.45
21
9.6
0
ENDBLK
5
7B
330
79
100
AcDbEntity
8
0
100
AcDbBlockEnd
0
BLOCK
5
7D
330
7C
100
AcDbEntity
8
0
100
AcDbBlockBegin
2
NKK_CW-Series_Switch_Cutout-2
70
0
10
0
20
0
3
NKK_CW-Series_Switch_Cutout-2
1

0
LINE
5
10B
100
AcDbEntity
8
NKK-CW-SW_Cutout
6
ByLayer
62
256
370
-1
100
AcDbLine
10
-6.45
20
-9.6
11
6.45
21
-9.6
0
LINE
5
10C
100
AcDbEntity
8
NKK-CW-SW_Cutout
6
ByLayer
62
256
370
-1
100
AcDbLine
10
-6.45
20
-9.6
11
-6.45
21
9.6
0
LINE
5
10D
100
AcDbEntity
8
NKK-CW-SW_Cutout
6
ByLayer
62
256
370
-1
100
AcDbLine
10
6.45
20
-9.6
11
6.45
21
9.6
0
LINE
5
10E
100
AcDbEntity
8
NKK-CW-SW_Cutout
6
ByLayer
62
256
370
-1
100
AcDbLine
10
-6.45
20
9.6
11
6.45
21
9.6
0
ENDBLK
5
7E
330
7C
100
AcDbEntity
8
0
100
AcDbBlockEnd
0
BLOCK
5
80
330
7F
100
AcDbEntity
8
0
100
AcDbBlockBegin
2
NKK_CW-Series_Switch_Cutout-3
70
0
10
0
20
0
3
NKK_CW-Series_Switch_Cutout-3
1

0
LINE
5
10F
100
AcDbEntity
8
NKK-CW-SW_Cutout
6
ByLayer
62
256
370
-1
100
AcDbLine
10
-6.45
20
-9.6
11
6.45
21
-9.6
0
LINE
5
110
100
AcDbEntity
8
NKK-CW-SW_Cutout
6
ByLayer
62
256
370
-1
100
AcDbLine
10
-6.45
20
-9.6
11
-6.45
21
9.6
0
LINE
5
111
100
AcDbEntity
8
NKK-CW-SW_Cutout
6
ByLayer
62
256
370
-1
100
AcDbLine
10
6.45
20
-9.6
11
6.45
21
9.6
0
LINE
5
112
100
AcDbEntity
8
NKK-CW-SW_Cutout
6
ByLayer
62
256
370
-1
100
AcDbLine
10
-6.45
20
9.6
11
6.45
21
9.6
0
ENDBLK
5
81
330
7F
100
AcDbEntity
8
0
100
AcDbBlockEnd
0
BLOCK
5
83
330
82
100
AcDbEntity
8
0
100
AcDbBlockBegin
2
NKK_CW-Series_Switch_Cutout-4
70
0
10
0
20
0
3
NKK_CW-Series_Switch_Cutout-4
1

0
LINE
5
113
100
AcDbEntity
8
NKK-CW-SW_Cutout
6
ByLayer
62
256
370
-1
100
AcDbLine
10
-6.45
20
-9.6
11
6.45
21
-9.6
0
LINE
5
114
100
AcDbEntity
8
NKK-CW-SW_Cutout
6
ByLayer
62
256
370
-1
100
AcDbLine
10
-6.45
20
-9.6
11
-6.45
21
9.6
0
LINE
5
115
100
AcDbEntity
8
NKK-CW-SW_Cutout
6
ByLayer
62
256
370
-1
100
AcDbLine
10
6.45
20
-9.6
11
6.45
21
9.6
0
LINE
5
116
100
AcDbEntity
8
NKK-CW-SW_Cutout
6
ByLayer
62
256
370
-1
100
AcDbLine
10
-6.45
20
9.6
11
6.45
21
9.6
0
ENDBLK
5
84
330
82
100
AcDbEntity
8
0
100
AcDbBlockEnd
0
BLOCK
5
86
330
85
100
AcDbEntity
8
0
100
AcDbBlockBegin
2
NKK_CW-Series_Switch_Cutout-5
70
0
10
0
20
0
3
NKK_CW-Series_Switch_Cutout-5
1

0
LINE
5
117
100
AcDbEntity
8
NKK-CW-SW_Cutout
6
ByLayer
62
256
370
-1
100
AcDbLine
10
-6.45
20
-9.6
11
6.45
21
-9.6
0
LINE
5
118
100
AcDbEntity
8
NKK-CW-SW_Cutout
6
ByLayer
62
256
370
-1
100
AcDbLine
10
-6.45
20
-9.6
11
-6.45
21
9.6
0
LINE
5
119
100
AcDbEntity
8
NKK-CW-SW_Cutout
6
ByLayer
62
256
370
-1
100
AcDbLine
10
6.45
20
-9.6
11
6.45
21
9.6
0
LINE
5
11A
100
AcDbEntity
8
NKK-CW-SW_Cutout
6
ByLayer
62
256
370
-1
100
AcDbLine
10
-6.45
20
9.6
11
6.45
21
9.6
0
ENDBLK
5
87
330
85
100
AcDbEntity
8
0
100
AcDbBlockEnd
0
BLOCK
5
89
330
88
100
AcDbEntity
8
0
100
AcDbBlockBegin
2
NKK_CW-Series_Switch_Cutout-6
70
0
10
0
20
0
3
NKK_CW-Series_Switch_Cutout-6
1

0
LINE
5
11B
100
AcDbEntity
8
NKK-CW-SW_Cutout
6
ByLayer
62
256
370
-1
100
AcDbLine
10
-6.45
20
-9.6
11
6.45
21
-9.6
0
LINE
5
11C
100
AcDbEntity
8
NKK-CW-SW_Cutout
6
ByLayer
62
256
370
-1
100
AcDbLine
10
-6.45
20
-9.6
11
-6.45
21
9.6
0
LINE
5
11D
100
AcDbEntity
8
NKK-CW-SW_Cutout
6
ByLayer
62
256
370
-1
100
AcDbLine
10
6.45
20
-9.6
11
6.45
21
9.6
0
LINE
5
11E
100
AcDbEntity
8
NKK-CW-SW_Cutout
6
ByLayer
62
256
370
-1
100
AcDbLine
10
-6.45
20
9.6
11
6.45
21
9.6
0
ENDBLK
5
8A
330
88
100
AcDbEntity
8
0
100
AcDbBlockEnd
0
BLOCK
5
8C
330
8B
100
AcDbEntity
8
0
100
AcDbBlockBegin
2
NKK_M-Series_TN-Type-0
70
0
10
0
20
0
3
NKK_M-Series_TN-Type-0
1

0
LINE
5
11F
100
AcDbEntity
8
NKK-M-SW_Cutout
6
ByLayer
62
256
370
-1
100
AcDbLine
10
-5.05
20
-8.9
11
-5.05
21
8.9
0
LINE
5
120
100
AcDbEntity
8
NKK-M-SW_Cutout
6
ByLayer
62
256
370
-1
100
AcDbLine
10
5.05
20
-8.9
11
5.05
21
8.9
0
LINE
5
121
100
AcDbEntity
8
NKK-M-SW_Cutout
6
ByLayer
62
256
370
-1
100
AcDbLine
10
-5.05
20
8.9
11
5.05
21
8.9
0
LINE
5
122
100
AcDbEntity
8
NKK-M-SW_Cutout
6
ByLayer
62
256
370
-1
100
AcDbLine
10
-5.05
20
-8.9
11
5.05
21
-8.9
0
CIRCLE
5
123
100
AcDbEntity
8
NKK-M-SW_MountingHoles
6
ByLayer
62
256
370
-1
100
AcDbCircle
10
0
20
11.9
40
1.4
0
CIRCLE
5
124
100
AcDbEntity
8
NKK-M-SW_MountingHoles
6
ByLayer
62
256
370
-1
100
AcDbCircle
10
0
20
-11.9
40
1.4
0
ENDBLK
5
8D
330
8B
100
AcDbEntity
8
0
100
AcDbBlockEnd
0
BLOCK
5
8F
330
8E
100
AcDbEntity
8
0
100
AcDbBlockBegin
2
2Pole_PowerConnector-9
70
0
10
0
20
0
3
2Pole_PowerConnector-9
1

0
CIRCLE
5
125
100
AcDbEntity
8
2xPowerConn_MountingHoles
6
ByLayer
62
256
370
-1
100
AcDbCircle
10
-9
20
0
40
6
0
CIRCLE
5
126
100
AcDbEntity
8
2xPowerConn_MountingHoles
6
ByLayer
62
256
370
-1
100
AcDbCircle
10
9
20
0
40
6
0
LINE
5
127
100
AcDbEntity
8
2xPowerConn_Outer
6
ByLayer
62
256
370
-1
100
AcDbLine
10
-9
20
7.5
11
9
21
7.5
0
LINE
5
128
100
AcDbEntity
8
2xPowerConn_Outer
6
ByLayer
62
256
370
-1
100
AcDbLine
10
9
20
-7.5
11
-9
21
-7.5
0
ARC
5
129
100
AcDbEntity
8
2xPowerConn_Outer
6
ByLayer
62
256
370
-1
100
AcDbCircle
10
-9
20
0
40
7.5
100
AcDbArc
50
90
51
270
0
ARC
5
12A
100
AcDbEntity
8
2xPowerConn_Outer
6
ByLayer
62
256
370
-1
100
AcDbCircle
10
9
20
0
40
7.5
100
AcDbArc
50
270
51
90
0
ENDBLK
5
90
330
8E
100
AcDbEntity
8
0
100
AcDbBlockEnd
0
BLOCK
5
92
330
91
100
AcDbEntity
8
0
100
AcDbBlockBegin
2
Ground-0
70
0
10
0
20
0
3
Ground-0
1

0
LINE
5
12B
100
AcDbEntity
8
0
6
ByLayer
62
256
370
-1
100
AcDbLine
10
-1
20
-1
11
1
21
-1
0
LINE
5
12C
100
AcDbEntity
8
0
6
ByLayer
62
256
370
-1
100
AcDbLine
10
-2
20
0
11
2
21
0
0
LINE
5
12D
100
AcDbEntity
8
0
6
ByLayer
62
256
370
-1
100
AcDbLine
10
-3
20
1
11
3
21
1
0
ENDBLK
5
93
330
91
100
AcDbEntity
8
0
100
AcDbBlockEnd
0
BLOCK
5
95
330
94
100
AcDbEntity
8
0
100
AcDbBlockBegin
2
Ground-1
70
0
10
0
20
0
3
Ground-1
1

0
LINE
5
12E
100
AcDbEntity
8
0
6
ByLayer
62
256
370
-1
100
AcDbLine
10
-1
20
-1
11
1
21
-1
0
LINE
5
12F
100
AcDbEntity
8
0
6
ByLayer
62
256
370
-1
100
AcDbLine
10
-2
20
0
11
2
21
0
0
LINE
5
130
100
AcDbEntity
8
0
6
ByLayer
62
256
370
-1
100
AcDbLine
10
-3
20
1
11
3
21
1
0
ENDBLK
5
96
330
94
100
AcDbEntity
8
0
100
AcDbBlockEnd
0
BLOCK
5
98
330
97
100
AcDbEntity
8
0
100
AcDbBlockBegin
2
Ground-2
70
0
10
0
20
0
3
Ground-2
1

0
LINE
5
131
100
AcDbEntity
8
0
6
ByLayer
62
256
370
-1
100
AcDbLine
10
-1
20
-1
11
1
21
-1
0
LINE
5
132
100
AcDbEntity
8
0
6
ByLayer
62
256
370
-1
100
AcDbLine
10
-2
20
0
11
2
21
0
0
LINE
5
133
100
AcDbEntity
8
0
6
ByLayer
62
256
370
-1
100
AcDbLine
10
-3
20
1
11
3
21
1
0
ENDBLK
5
99
330
97
100
AcDbEntity
8
0
100
AcDbBlockEnd
0
BLOCK
5
9B
330
9A
100
AcDbEntity
8
0
100
AcDbBlockBegin
2
Ground-3
70
0
10
0
20
0
3
Ground-3
1

0
LINE
5
134
100
AcDbEntity
8
0
6
ByLayer
62
256
370
-1
100
AcDbLine
10
-1
20
-1
11
1
21
-1
0
LINE
5
135
100
AcDbEntity
8
0
6
ByLayer
62
256
370
-1
100
AcDbLine
10
-2
20
0
11
2
21
0
0
LINE
5
136
100
AcDbEntity
8
0
6
ByLayer
62
256
370
-1
100
AcDbLine
10
-3
20
1
11
3
21
1
0
ENDBLK
5
9C
330
9A
100
AcDbEntity
8
0
100
AcDbBlockEnd
0
BLOCK
5
9E
330
9D
100
AcDbEntity
8
0
100
AcDbBlockBegin
2
Ground-4
70
0
10
0
20
0
3
Ground-4
1

0
LINE
5
137
100
AcDbEntity
8
0
6
ByLayer
62
256
370
-1
100
AcDbLine
10
-1
20
-1
11
1
21
-1
0
LINE
5
138
100
AcDbEntity
8
0
6
ByLayer
62
256
370
-1
100
AcDbLine
10
-2
20
0
11
2
21
0
0
LINE
5
139
100
AcDbEntity
8
0
6
ByLayer
62
256
370
-1
100
AcDbLine
10
-3
20
1
11
3
21
1
0
ENDBLK
5
9F
330
9D
100
AcDbEntity
8
0
100
AcDbBlockEnd
0
BLOCK
5
A1
330
A0
100
AcDbEntity
8
0
100
AcDbBlockBegin
2
Ground-5
70
0
10
0
20
0
3
Ground-5
1

0
LINE
5
13A
100
AcDbEntity
8
0
6
ByLayer
62
256
370
-1
100
AcDbLine
10
-1
20
-1
11
1
21
-1
0
LINE
5
13B
100
AcDbEntity
8
0
6
ByLayer
62
256
370
-1
100
AcDbLine
10
-2
20
0
11
2
21
0
0
LINE
5
13C
100
AcDbEntity
8
0
6
ByLayer
62
256
370
-1
100
AcDbLine
10
-3
20
1
11
3
21
1
0
ENDBLK
5
A2
330
A0
100
AcDbEntity
8
0
100
AcDbBlockEnd
0
BLOCK
5
A4
330
A3
100
AcDbEntity
8
0
100
AcDbBlockBegin
2
Ground-6
70
0
10
0
20
0
3
Ground-6
1

0
LINE
5
13D
100
AcDbEntity
8
0
6
ByLayer
62
256
370
-1
100
AcDbLine
10
-1
20
-1
11
1
21
-1
0
LINE
5
13E
100
AcDbEntity
8
0
6
ByLayer
62
256
370
-1
100
AcDbLine
10
-2
20
0
11
2
21
0
0
LINE
5
13F
100
AcDbEntity
8
0
6
ByLayer
62
256
370
-1
100
AcDbLine
10
-3
20
1
11
3
21
1
0
ENDBLK
5
A5
330
A3
100
AcDbEntity
8
0
100
AcDbBlockEnd
0
BLOCK
5
A7
330
A6
100
AcDbEntity
8
0
100
AcDbBlockBegin
2
Ground-7
70
0
10
0
20
0
3
Ground-7
1

0
LINE
5
140
100
AcDbEntity
8
0
6
ByLayer
62
256
370
-1
100
AcDbLine
10
-1
20
-1
11
1
21
-1
0
LINE
5
141
100
AcDbEntity
8
0
6
ByLayer
62
256
370
-1
100
AcDbLine
10
-2
20
0
11
2
21
0
0
LINE
5
142
100
AcDbEntity
8
0
6
ByLayer
62
256
370
-1
100
AcDbLine
10
-3
20
1
11
3
21
1
0
ENDBLK
5
A8
330
A6
100
AcDbEntity
8
0
100
AcDbBlockEnd
0
BLOCK
5
AA
330
A9
100
AcDbEntity
8
0
100
AcDbBlockBegin
2
Ground-8
70
0
10
0
20
0
3
Ground-8
1

0
LINE
5
143
100
AcDbEntity
8
0
6
ByLayer
62
256
370
-1
100
AcDbLine
10
-1
20
-1
11
1
21
-1
0
LINE
5
144
100
AcDbEntity
8
0
6
ByLayer
62
256
370
-1
100
AcDbLine
10
-2
20
0
11
2
21
0
0
LINE
5
145
100
AcDbEntity
8
0
6
ByLayer
62
256
370
-1
100
AcDbLine
10
-3
20
1
11
3
21
1
0
ENDBLK
5
AB
330
A9
100
AcDbEntity
8
0
100
AcDbBlockEnd
0
ENDSEC
0
SECTION
2
ENTITIES
0
LINE
5
146
100
AcDbEntity
8
PanelOuter
6
ByLayer
62
256
370
-1
100
AcDbLine
10
10
20
210
11
10
21
191.75
0
LINE
5
147
100
AcDbEntity
8
PanelOuter
6
ByLayer
62
256
370
-1
100
AcDbLine
10
10
20
18.25
11
10
21
0
0
LINE
5
148
100
AcDbEntity
8
PanelOuter
6
ByLayer
62
256
370
-1
100
AcDbLine
10
10
20
210
11
190
21
210
0
LINE
5
149
100
AcDbEntity
8
PanelOuter
6
ByLayer
62
256
370
-1
100
AcDbLine
10
10
20
0
11
190
21
0
0
LINE
5
14A
100
AcDbEntity
8
PanelOuter
6
ByLayer
62
256
370
-1
100
AcDbLine
10
190
20
210
11
190
21
191.75
0
LINE
5
14B
100
AcDbEntity
8
PanelOuter
6
ByLayer
62
256
370
-1
100
AcDbLine
10
190
20
18.25
11
190
21
0
0
LINE
5
14C
100
AcDbEntity
8
PanelOuter
6
ByLayer
62
256
370
-1
100
AcDbLine
10
10
20
30
11
7
21
30
0
LINE
5
14D
100
AcDbEntity
8
PanelOuter
6
ByLayer
62
256
370
-1
100
AcDbLine
10
7
20
30
11
7
21
40
0
LINE
5
14E
100
AcDbEntity
8
PanelOuter
6
ByLayer
62
256
370
-1
100
AcDbLine
10
7
20
40
11
10
21
40
0
LINE
5
14F
100
AcDbEntity
8
PanelOuter
6
ByLayer
62
256
370
-1
100
AcDbLine
10
10
20
180
11
7
21
180
0
LINE
5
150
100
AcDbEntity
8
PanelOuter
6
ByLayer
62
256
370
-1
100
AcDbLine
10
7
20
180
11
7
21
170
0
LINE
5
151
100
AcDbEntity
8
PanelOuter
6
ByLayer
62
256
370
-1
100
AcDbLine
10
7
20
170
11
10
21
170
0
LINE
5
152
100
AcDbEntity
8
PanelOuter
6
ByLayer
62
256
370
-1
100
AcDbLine
10
10
20
188.25
11
10
21
180
0
LINE
5
153
100
AcDbEntity
8
PanelOuter
6
ByLayer
62
256
370
-1
100
AcDbLine
10
10
20
170
11
10
21
106.75
0
LINE
5
154
100
AcDbEntity
8
PanelOuter
6
ByLayer
62
256
370
-1
100
AcDbLine
10
10
20
103.25
11
10
21
40
0
LINE
5
155
100
AcDbEntity
8
PanelOuter
6
ByLayer
62
256
370
-1
100
AcDbLine
10
10
20
30
11
10
21
21.75
0
LINE
5
156
100
AcDbEntity
8
PanelOuter
6
ByLayer
62
256
370
-1
100
AcDbLine
10
190
20
30
11
193
21
30
0
LINE
5
157
100
AcDbEntity
8
PanelOuter
6
ByLayer
62
256
370
-1
100
AcDbLine
10
193
20
30
11
193
21
40
0
LINE
5
158
100
AcDbEntity
8
PanelOuter
6
ByLayer
62
256
370
-1
100
AcDbLine
10
193
20
40
11
190
21
40
0
LINE
5
159
100
AcDbEntity
8
PanelOuter
6
ByLayer
62
256
370
-1
100
AcDbLine
10
190
20
180
11
193
21
180
0
LINE
5
15A
100
AcDbEntity
8
PanelOuter
6
ByLayer
62
256
370
-1
100
AcDbLine
10
193
20
180
11
193
21
170
0
LINE
5
15B
100
AcDbEntity
8
PanelOuter
6
ByLayer
62
256
370
-1
100
AcDbLine
10
193
20
170
11
190
21
170
0
LINE
5
15C
100
AcDbEntity
8
PanelOuter
6
ByLayer
62
256
370
-1
100
AcDbLine
10
190
20
188.25
11
190
21
180
0
LINE
5
15D
100
AcDbEntity
8
PanelOuter
6
ByLayer
62
256
370
-1
100
AcDbLine
10
190
20
170
11
190
21
106.75
0
LINE
5
15E
100
AcDbEntity
8
PanelOuter
6
ByLayer
62
256
370
-1
100
AcDbLine
10
190
20
103.25
11
190
21
40
0
LINE
5
15F
100
AcDbEntity
8
PanelOuter
6
ByLayer
62
256
370
-1
100
AcDbLine
10
190
20
30
11
190
21
21.75
0
MTEXT
5
160
100
AcDbEntity
8
SwitchOption_Engraving
6
ByLayer
62
256
370
-1
100
AcDbMText
10
160
20
200
30
0
40
2
41
10
71
8
72
5
1
OUTPUT
7
iso
210
0
220
0
230
1
50
0
73
1
44
0.96
0
MTEXT
5
161
100
AcDbEntity
8
SwitchOption_Engraving
6
ByLayer
62
256
370
-1
100
AcDbMText
10
130
20
200
30
0
40
2
41
2.88888888889
71
8
72
5
1
ON
7
iso
210
0
220
0
230
1
50
0
73
1
44
0.96
0
CIRCLE
5
162
100
AcDbEntity
8
SwitchOption_Cutouts
6
ByLayer
62
256
370
-1
100
AcDbCircle
10
130
20
190
40
4
0
INSERT
5
163
100
AcDbEntity
8
SwitchOption_Cutouts
6
ByLayer
62
256
370
-1
100
AcDbBlockReference
2
NKK_CW-Series_Switch_Cutout-2
10
160
20
190
30
0
41
1
42
1
43
0
50
90
70
1
71
1
44
0
45
0
0
CIRCLE
5
164
100
AcDbEntity
8
SwitchOption_Cutouts
6
ByLayer
62
256
370
-1
100
AcDbCircle
10
130
20
165
40
4
0
INSERT
5
165
100
AcDbEntity
8
SwitchOption_Cutouts
6
ByLayer
62
256
370
-1
100
AcDbBlockReference
2
NKK_CW-Series_Switch_Cutout-3
10
160
20
165
30
0
41
1
42
1
43
0
50
90
70
1
71
1
44
0
45
0
0
CIRCLE
5
166
100
AcDbEntity
8
SwitchOption_Cutouts
6
ByLayer
62
256
370
-1
100
AcDbCircle
10
130
20
140
40
4
0
INSERT
5
167
100
AcDbEntity
8
SwitchOption_Cutouts
6
ByLayer
62
256
370
-1
100
AcDbBlockReference
2
NKK_CW-Series_Switch_Cutout-4
10
160
20
140
30
0
41
1
42
1
43
0
50
90
70
1
71
1
44
0
45
0
0
CIRCLE
5
168
100
AcDbEntity
8
SwitchOption_Cutouts
6
ByLayer
62
256
370
-1
100
AcDbCircle
10
130
20
115
40
4
0
INSERT
5
169
100
AcDbEntity
8
SwitchOption_Cutouts
6
ByLayer
62
256
370
-1
100
AcDbBlockReference
2
NKK_CW-Series_Switch_Cutout-5
10
160
20
115
30
0
41
1
42
1
43
0
50
90
70
1
71
1
44
0
45
0
0
CIRCLE
5
16A
100
AcDbEntity
8
SwitchOption_Cutouts
6
ByLayer
62
256
370
-1
100
AcDbCircle
10
130
20
90
40
4
0
INSERT
5
16B
100
AcDbEntity
8
SwitchOption_Cutouts
6
ByLayer
62
256
370
-1
100
AcDbBlockReference
2
NKK_CW-Series_Switch_Cutout-6
10
160
20
90
30
0
41
1
42
1
43
0
50
90
70
1
71
1
44
0
45
0
0
INSERT
5
16C
100
AcDbEntity
8
PanelOuter
6
ByLayer
62
256
370
-1
100
AcDbBlockReference
2
M3_ScrewJoint-0
10
10
20
190
30
0
41
1
42
1
43
0
50
270
70
1
71
1
44
0
45
0
0
INSERT
5
16D
100
AcDbEntity
8
PanelOuter
6
ByLayer
62
256
370
-1
100
AcDbBlockReference
2
M3_ScrewJoint-1
10
10
20
105
30
0
41
1
42
1
43
0
50
270
70
1
71
1
44
0
45
0
0
INSERT
5
16E
100
AcDbEntity
8
PanelOuter
6
ByLayer
62
256
370
-1
100
AcDbBlockReference
2
M3_ScrewJoint-2
10
10
20
20
30
0
41
1
42
1
43
0
50
270
70
1
71
1
44
0
45
0
0
INSERT
5
16F
100
AcDbEntity
8
PanelOuter
6
ByLayer
62
256
370
-1
100
AcDbBlockReference
2
M3_ScrewJoint-0
10
190
20
190
30
0
41
-1
42
1
43
0
50
90
70
1
71
1
44
0
45
0
0
INSERT
5
170
100
AcDbEntity
8
PanelOuter
6
ByLayer
62
256
370
-1
100
AcDbBlockReference
2
M3_ScrewJoint-1
10
190
20
105
30
0
41
-1
42
1
43
0
50
90
70
1
71
1
44
0
45
0
0
INSERT
5
171
100
AcDbEntity
8
PanelOuter
6
ByLayer
62
256
370
-1
100
AcDbBlockReference
2
M3_ScrewJoint-2
10
190
20
20
30
0
41
-1
42
1
43
0
50
90
70
1
71
1
44
0
45
0
0
INSERT
5
172
100
AcDbEntity
8
0
6
ByLayer
62
256
370
-1
100
AcDbBlockReference
2
2Pole_PowerConnector-0
10
55
20
190
30
0
41
1
42
1
43
0
50
0
70
1
71
1
44
0
45
0
0
INSERT
5
173
100
AcDbEntity
8
0
6
ByLayer
62
256
370
-1
100
AcDbBlockReference
2
2Pole_PowerConnector-1
10
55
20
165
30
0
41
1
42
1
43
0
50
0
70
1
71
1
44
0
45
0
0
INSERT
5
174
100
AcDbEntity
8
0
6
ByLayer
62
256
370
-1
100
AcDbBlockReference
2
2Pole_PowerConnector-2
10
55
20
140
30
0
41
1
42
1
43
0
50
0
70
1
71
1
44
0
45
0
0
INSERT
5
175
100
AcDbEntity
8
0
6
ByLayer
62
256
370
-1
100
AcDbBlockReference
2
2Pole_PowerConnector-3
10
55
20
115
30
0
41
1
42
1
43
0
50
0
70
1
71
1
44
0
45
0
0
INSERT
5
176
100
AcDbEntity
8
0
6
ByLayer
62
256
370
-1
100
AcDbBlockReference
2
2Pole_PowerConnector-4
10
55
20
90
30
0
41
1
42
1
43
0
50
0
70
1
71
1
44
0
45
0
0
INSERT
5
177
100
AcDbEntity
8
0
6
ByLayer
62
256
370
-1
100
AcDbBlockReference
2
2Pole_PowerConnector-8
10
55
20
20
30
0
41
1
42
1
43
0
50
0
70
1
71
1
44
0
45
0
0
INSERT
5
178
100
AcDbEntity
8
0
6
ByLayer
62
256
370
-1
100
AcDbBlockReference
2
2Pole_PowerConnector-9
10
145
20
20
30
0
41
1
42
1
43
0
50
0
70
1
71
1
44
0
45
0
0
INSERT
5
179
100
AcDbEntity
8
0
6
ByLayer
62
256
370
-1
100
AcDbBlockReference
2
2Pole_PowerConnector-7
10
55
20
55
30
0
41
1
42
1
43
0
50
0
70
1
71
1
44
0
45
0
0
INSERT
5
17A
100
AcDbEntity
8
0
6
ByLayer
62
256
370
-1
100
AcDbBlockReference
2
NKK_M-Series_TN-Type-0
10
170
20
55
30
0
41
1
42
1
43
0
50
0
70
1
71
1
44
0
45
0
0
CIRCLE
5
17B
100
AcDbEntity
8
MiscPanel_Cutouts
6
ByLayer
62
256
370
-1
100
AcDbCircle
10
30
20
35
40
4
0
CIRCLE
5
17C
100
AcDbEntity
8
MiscPanel_Cutouts
6
ByLayer
62
256
370
-1
100
AcDbCircle
10
30
20
70
40
4
0
INSERT
5
17D
100
AcDbEntity
8
Engraving
6
ByLayer
62
256
370
-1
100
AcDbBlockReference
2
Ground-8
10
46
20
180
30
0
41
1
42
1
43
0
50
0
70
1
71
1
44
0
45
0
0
MTEXT
5
17E
100
AcDbEntity
8
Engraving
6
ByLayer
62
256
370
-1
100
AcDbMText
10
110
20
190
30
0
40
10
41
20
71
6
72
5
1
12V
7
iso
210
0
220
0
230
1
50
0
73
1
44
0.96
0
INSERT
5
17F
100
AcDbEntity
8
Engraving
6
ByLayer
62
256
370
-1
100
AcDbBlockReference
2
Ground-7
10
46
20
155
30
0
41
1
42
1
43
0
50
0
70
1
71
1
44
0
45
0
0
MTEXT
5
180
100
AcDbEntity
8
Engraving
6
ByLayer
62
256
370
-1
100
AcDbMText
10
110
20
165
30
0
40
10
41
14.4444444444
71
6
72
5
1
5V
7
iso
210
0
220
0
230
1
50
0
73
1
44
0.96
0
INSERT
5
181
100
AcDbEntity
8
Engraving
6
ByLayer
62
256
370
-1
100
AcDbBlockReference
2
Ground-6
10
46
20
130
30
0
41
1
42
1
43
0
50
0
70
1
71
1
44
0
45
0
0
MTEXT
5
182
100
AcDbEntity
8
Engraving
6
ByLayer
62
256
370
-1
100
AcDbMText
10
110
20
140
30
0
40
10
41
25.5555555556
71
6
72
5
1
3.3V
7
iso
210
0
220
0
230
1
50
0
73
1
44
0.96
0
INSERT
5
183
100
AcDbEntity
8
Engraving
6
ByLayer
62
256
370
-1
100
AcDbBlockReference
2
Ground-5
10
46
20
105
30
0
41
1
42
1
43
0
50
0
70
1
71
1
44
0
45
0
0
MTEXT
5
184
100
AcDbEntity
8
Engraving
6
ByLayer
62
256
370
-1
100
AcDbMText
10
110
20
115
30
0
40
10
41
22.2222222222
71
6
72
5
1
-5V
7
iso
210
0
220
0
230
1
50
0
73
1
44
0.96
0
INSERT
5
185
100
AcDbEntity
8
Engraving
6
ByLayer
62
256
370
-1
100
AcDbBlockReference
2
Ground-4
10
46
20
80
30
0
41
1
42
1
43
0
50
0
70
1
71
1
44
0
45
0
0
MTEXT
5
186
100
AcDbEntity
8
Engraving
6
ByLayer
62
256
370
-1
100
AcDbMText
10
110
20
90
30
0
40
10
41
27.7777777778
71
6
72
5
1
-12V
7
iso
210
0
220
0
230
1
50
0
73
1
44
0.96
0
MTEXT
5
187
100
AcDbEntity
8
Engraving
6
ByLayer
62
256
370
-1
100
AcDbMText
10
64
20
11
30
0
40
2
41
2.88888888889
71
2
72
5
1
5V
7
iso
210
0
220
0
230
1
50
0
73
1
44
0.96
0
INSERT
5
188
100
AcDbEntity
8
Engraving
6
ByLayer
62
256
370
-1
100
AcDbBlockReference
2
Ground-3
10
46
20
10
30
0
41
1
42
1
43
0
50
0
70
1
71
1
44
0
45
0
0
LINE
5
189
100
AcDbEntity
8
Engraving
6
ByLayer
62
256
370
-1
100
AcDbLine
10
136
20
13
11
136
21
9
0
LINE
5
18A
100
AcDbEntity
8
Engraving
6
ByLayer
62
256
370
-1
100
AcDbLine
10
136
20
9
11
140
21
9
0
LINE
5
18B
100
AcDbEntity
8
Engraving
6
ByLayer
62
256
370
-1
100
AcDbLine
10
150
20
9
11
154
21
9
0
LINE
5
18C
100
AcDbEntity
8
Engraving
6
ByLayer
62
256
370
-1
100
AcDbLine
10
154
20
9
11
154
21
13
0
CIRCLE
5
18D
100
AcDbEntity
8
Engraving
6
ByLayer
62
256
370
-1
100
AcDbCircle
10
141
20
9
40
1
0
CIRCLE
5
18E
100
AcDbEntity
8
Engraving
6
ByLayer
62
256
370
-1
100
AcDbCircle
10
149
20
9
40
1
0
LINE
5
18F
100
AcDbEntity
8
Engraving
6
ByLayer
62
256
370
-1
100
AcDbLine
10
141.9701425
20
8.75746437496
11
149
21
7
0
MTEXT
5
190
100
AcDbEntity
8
Engraving
6
ByLayer
62
256
370
-1
100
AcDbMText
10
40
20
35
30
0
40
6
41
65.666666
71
4
72
5
1
OUTPUT ON (PG)
7
iso
210
0
220
0
230
1
50
0
73
1
44
0.96
0
MTEXT
5
191
100
AcDbEntity
8
Engraving
6
ByLayer
62
256
370
-1
100
AcDbMText
10
160
20
35
30
0
40
6
41
29.3333333333
71
6
72
5
1
REMOTE
7
iso
210
0
220
0
230
1
50
0
73
1
44
0.96
0
LINE
5
192
100
AcDbEntity
8
Engraving
6
ByLayer
62
256
370
-1
100
AcDbLine
10
161
20
35
11
170
21
35
0
MTEXT
5
193
100
AcDbEntity
8
Engraving
6
ByLayer
62
256
370
-1
100
AcDbMText
10
40
20
70
30
0
40
6
41
58.3333301226
71
4
72
5
1
MAINS ON (SB)
7
iso
210
0
220
0
230
1
50
0
73
1
44
0.96
0
MTEXT
5
194
100
AcDbEntity
8
Engraving
6
ByLayer
62
256
370
-1
100
AcDbMText
10
64
20
46
30
0
40
2
41
2.88888888889
71
2
72
5
1
5V
7
iso
210
0
220
0
230
1
50
0
73
1
44
0.96
0
INSERT
5
195
100
AcDbEntity
8
Engraving
6
ByLayer
62
256
370
-1
100
AcDbBlockReference
2
Ground-2
10
46
20
45
30
0
41
1
42
1
43
0
50
0
70
1
71
1
44
0
45
0
0
MTEXT
5
196
100
AcDbEntity
8
Engraving
6
ByLayer
62
256
370
-1
100
AcDbMText
10
160
20
55
30
0
40
6
41
12.6666666667
71
6
72
5
1
OFF
7
iso
210
0
220
0
230
1
50
0
73
1
44
0.96
0
LINE
5
197
100
AcDbEntity
8
Engraving
6
ByLayer
62
256
370
-1
100
AcDbLine
10
161
20
55
11
165
21
55
0
LINE
5
198
100
AcDbEntity
8
Engraving
6
ByLayer
62
256
370
-1
100
AcDbLine
10
170
20
63
11
170
21
70
0
MTEXT
5
199
100
AcDbEntity
8
Engraving
6
ByLayer
62
256
370
-1
100
AcDbMText
10
160
20
70
30
0
40
6
41
8.66666666667
71
6
72
5
1
ON
7
iso
210
0
220
0
230
1
50
0
73
1
44
0.96
0
LINE
5
19A
100
AcDbEntity
8
Engraving
6
ByLayer
62
256
370
-1
100
AcDbLine
10
161
20
70
11
170
21
70
0
LINE
5
19B
100
AcDbEntity
8
Engraving
6
ByLayer
62
256
370
-1
100
AcDbLine
10
170
20
47
11
170
21
35
0
ENDSEC
0
SECTION
2
OBJECTS
0
DICTIONARY
5
C
330
0
100
AcDbDictionary
281
1
3
ACAD_GROUP
350
D
0
DICTIONARY
5
D
330
C
100
AcDbDictionary
281
1
0
ENDSEC
0
EOF
